#File written by RizomUV 2020.0.89.gadc9742. Compilation :May  5 2020,11:18:49
mtllib caidao:mtl
#begin vertices
v -49.9606 46.3143 14.5042
v -50.0578 46.1169 14.4781
v -50.2091 45.9603 14.4376
v -50.3998 45.8597 14.3865
v -50.6111 45.825 14.3298
v -50.8225 45.8597 14.2731
v -51.0131 45.9603 14.222
v -51.1645 46.1169 14.1815
v -51.2616 46.3143 14.1554
v -51.2951 46.5331 14.1465
v -51.2616 46.752 14.1554
v -51.1645 46.9494 14.1815
v -51.0131 47.106 14.222
v -50.8225 47.2066 14.2731
v -50.6111 47.2413 14.3298
v -50.3998 47.2066 14.3865
v -50.2091 47.106 14.4376
v -50.0578 46.9494 14.4781
v -49.9606 46.752 14.5042
v -49.9271 46.5331 14.5132
v -50.9662 46.752 18.2556
v -50.9327 46.5331 18.2646
v -51.0634 46.9494 18.2296
v -51.2147 47.106 18.189
v -51.4054 47.2066 18.1379
v -51.6167 47.2413 18.0812
v -51.8281 47.2066 18.0246
v -52.0188 47.106 17.9735
v -52.1701 46.9494 17.9329
v -52.2672 46.752 17.9068
v -52.3007 46.5331 17.8979
v -52.2672 46.3143 17.9068
v -52.1701 46.1169 17.9329
v -52.0188 45.9602 17.9735
v -51.8281 45.8597 18.0246
v -51.6167 45.825 18.0812
v -51.4054 45.8597 18.1379
v -51.2147 45.9603 18.189
v -51.0634 46.1169 18.2296
v -50.9662 46.3143 18.2556
v -52.7923 46.2885 20.6418
v -52.0138 46.2885 17.7377
v -51.0734 46.2885 17.9897
v -51.8519 46.2885 20.8938
v -52.7923 46.6035 20.6418
v -51.8519 46.6035 20.8938
v -51.0734 46.6035 17.9897
v -52.0138 46.6035 17.7377
v -57.8486 46.2357 29.4938
v -56.8052 46.2357 28.5064
v -55.121 46.2357 29.0985
v -56.1194 46.2357 29.9936
v -53.7211 46.2357 29.7503
v -54.7133 46.2357 30.6328
v -52.4154 46.2357 30.5952
v -53.4483 46.2357 31.561
v -51.0141 46.2357 31.7663
v -52.1425 46.2357 32.9277
v -55.8749 46.2357 27.4225
v -54.2258 46.2357 28.0862
v -52.8303 46.2357 28.7473
v -51.4922 46.2357 29.5258
v -50.0151 46.2357 30.5417
v -55.0656 46.2357 26.2578
v -53.4441 46.2357 26.9782
v -52.0516 46.2357 27.6453
v -50.6861 46.2357 28.3677
v -49.1456 46.2357 29.2538
v -54.3848 46.2357 25.0281
v -52.7863 46.2357 25.7955
v -51.3952 46.2357 26.4656
v -50.0042 46.2357 27.1357
v -48.4055 46.2357 27.9027
v -53.8402 46.2357 23.749
v -52.2627 46.2357 24.5593
v -50.8718 46.2357 25.2297
v -49.4538 46.2357 25.8446
v -47.7949 46.2357 26.4884
v -53.4395 46.2357 22.4363
v -51.8837 46.2357 23.291
v -50.4917 46.2357 23.9591
v -49.0421 46.2357 24.5094
v -47.3137 46.2357 25.0108
v -53.1904 46.2357 21.1056
v -51.6597 46.2357 22.0118
v -50.2654 46.2357 22.6751
v -48.7764 46.2357 23.1447
v -46.962 46.2357 23.47
v -53.1006 46.2357 19.7727
v -51.6011 46.2357 20.7427
v -50.2033 46.2357 21.3991
v -48.664 46.2357 21.7656
v -46.7397 46.2357 21.866
v -57.8486 46.6451 29.4938
v -56.1194 46.6451 29.9936
v -55.121 46.6451 29.0985
v -56.8052 46.6451 28.5064
v -54.7133 46.6451 30.6328
v -53.7211 46.6451 29.7503
v -53.4483 46.6451 31.561
v -52.4154 46.6451 30.5952
v -52.1425 46.6451 32.9277
v -51.0141 46.6451 31.7663
v -54.2258 46.6451 28.0862
v -55.8749 46.6451 27.4225
v -52.8303 46.6451 28.7473
v -51.4922 46.6451 29.5258
v -50.0151 46.6451 30.5417
v -53.4441 46.6451 26.9782
v -55.0656 46.6451 26.2578
v -52.0516 46.6451 27.6453
v -50.6861 46.6451 28.3677
v -49.1456 46.6451 29.2538
v -52.7863 46.6451 25.7955
v -54.3848 46.6451 25.0281
v -51.3952 46.6451 26.4656
v -50.0042 46.6451 27.1357
v -48.4055 46.6451 27.9027
v -52.2627 46.6451 24.5593
v -53.8402 46.6451 23.749
v -50.8718 46.6451 25.2297
v -49.4538 46.6451 25.8446
v -47.7949 46.6451 26.4884
v -51.8837 46.6451 23.291
v -53.4395 46.6451 22.4363
v -50.4917 46.6451 23.9591
v -49.0421 46.6451 24.5094
v -47.3137 46.6451 25.0108
v -51.6597 46.6451 22.0118
v -53.1904 46.6451 21.1056
v -50.2654 46.6451 22.6751
v -48.7764 46.6451 23.1447
v -46.962 46.6451 23.47
v -51.6011 46.6451 20.7427
v -53.1006 46.6451 19.7727
v -50.2033 46.6451 21.3991
v -48.664 46.6451 21.7656
v -46.7397 46.6451 21.866
#end vertices

#begin 264 textures vertices 
vt 0.6705805 0.7845295 0
vt 0.6745783 0.7718616 0
vt 0.6821773 0.7611343 0
vt 0.6926389 0.7533891 0
vt 0.7049318 0.7493886 0
vt 0.7178645 0.7495287 0
vt 0.7301577 0.7537915 0
vt 0.740623 0.7617542 0
vt 0.7482205 0.7726477 0
vt 0.752218 0.7853991 0
vt 0.752218 0.7987684 0
vt 0.7482261 0.8114354 0
vt 0.7406212 0.8221636 0
vt 0.7301655 0.8299079 0
vt 0.7178667 0.8339093 0
vt 0.9309321 0.7192239 0
vt 0.6926408 0.8295064 0
vt 0.6821814 0.8215428 0
vt 0.674578 0.8106502 0
vt 0.6705796 0.7978929 0
vt 0.2696411 0.702217 0
vt 0.2832769 0.7016564 0
vt 0.2573447 0.7038366 0
vt 0.9178299 0.9770075 0
vt 0.5719425 0.6871118 0
vt 0.01568644 0.9411282 0
vt 0.0294242 0.9411324 0
vt 0.04181746 0.9411335 0
vt 0.05165112 0.9411309 0
vt 0.2092753 0.9467872 0
vt 0.2229104 0.9462329 0
vt 0.2365393 0.9467872 0
vt 0.2488351 0.948413 0
vt 0.4391649 0.4157469 0
vt 0.4517821 0.4157458 0
vt 0.4657682 0.4157417 0
vt 0.4797497 0.4157454 0
vt 0.4923669 0.4157443 0
vt 0.5023783 0.415747 0
vt 0.2969064 0.702217 0
vt 0.31771 0.8857375 0
vt 0.31771 0.7073433 0
vt 0.3754758 0.707338 0
vt 0.3754758 0.8857322 0
vt 0.1897365 0.9133692 0
vt 0.1319706 0.9133639 0
vt 0.1319706 0.7349697 0
vt 0.1897365 0.734975 0
vt 0.4709449 0.6978958 0
vt 0.5008611 0.6180835 0
vt 0.6060709 0.6057946 0
vt 0.5761503 0.6795142 0
vt 0.697678 0.6040916 0
vt 0.6677599 0.676978 0
vt 0.7892913 0.6151366 0
vt 0.7593724 0.6935238 0
vt 0.8944955 0.6410832 0
vt 0.8645785 0.7323855 0
vt 0.5222347 0.5360716 0
vt 0.6274376 0.5285139 0
vt 0.7190523 0.5274214 0
vt 0.8106639 0.5340825 0
vt 0.915868 0.549781 0
vt 0.5350533 0.4529026 0
vt 0.6402612 0.4490866 0
vt 0.7318722 0.448392 0
vt 0.8234837 0.4513488 0
vt 0.928688 0.4584762 0
vt 0.5393284 0.3696144 0
vt 0.6445339 0.368903 0
vt 0.7361484 0.3684049 0
vt 0.8277576 0.3679093 0
vt 0.9329634 0.3671714 0
vt 0.5350558 0.2872391 0
vt 0.6402588 0.2893617 0
vt 0.7318705 0.2888848 0
vt 0.8234817 0.2847432 0
vt 0.9286889 0.2758694 0
vt 0.5222363 0.2068195 0
vt 0.6274386 0.2118744 0
vt 0.719049 0.2112461 0
vt 0.8106628 0.2028376 0
vt 0.9158672 0.1845621 0
vt 0.5008657 0.1293879 0
vt 0.6060709 0.1378421 0
vt 0.6976789 0.136898 0
vt 0.7892919 0.1231611 0
vt 0.8944957 0.09325759 0
vt 0.4709449 0.05598718 0
vt 0.576148 0.0686552 0
vt 0.6677629 0.06725217 0
vt 0.7593729 0.04670875 0
vt 0.8645796 0.001953125 0
vt 0.4639716 0.6978958 0
vt 0.3587662 0.6795142 0
vt 0.3288456 0.6057946 0
vt 0.4340554 0.6180835 0
vt 0.2671566 0.676978 0
vt 0.2372385 0.6040916 0
vt 0.1755441 0.6935238 0
vt 0.1456252 0.6151366 0
vt 0.070338 0.7323855 0
vt 0.04042098 0.6410832 0
vt 0.3074789 0.5285139 0
vt 0.4126818 0.5360716 0
vt 0.2158642 0.5274214 0
vt 0.1242526 0.5340825 0
vt 0.01904851 0.549781 0
vt 0.2946553 0.4490866 0
vt 0.3998632 0.4529026 0
vt 0.2030443 0.448392 0
vt 0.1114328 0.4513488 0
vt 0.006228538 0.4584762 0
vt 0.2903826 0.368903 0
vt 0.3955881 0.3696144 0
vt 0.1987681 0.3684049 0
vt 0.1071589 0.3679093 0
vt 0.001953125 0.3671714 0
vt 0.2946577 0.2893617 0
vt 0.3998607 0.2872391 0
vt 0.203046 0.2888848 0
vt 0.1114348 0.2847432 0
vt 0.006227602 0.2758694 0
vt 0.3074779 0.2118744 0
vt 0.4126802 0.2068195 0
vt 0.2158675 0.2112461 0
vt 0.1242537 0.2028376 0
vt 0.01904924 0.1845621 0
vt 0.3288456 0.1378421 0
vt 0.4340508 0.1293879 0
vt 0.2372376 0.136898 0
vt 0.1456246 0.1231611 0
vt 0.04042077 0.09325759 0
vt 0.3587685 0.0686552 0
vt 0.4639716 0.05598718 0
vt 0.2671536 0.06725217 0
vt 0.1755436 0.04670875 0
vt 0.07033686 0.001953125 0
vt 0.04181302 0.6973228 0
vt 0.9658499 0.4095328 0
vt 0.02942583 0.6973233 0
vt 0.9980469 0.1685475 0
vt 0.01568644 0.6973252 0
vt 0.001953125 0.6973288 0
vt 0.9658499 0.234495 0
vt 0.4797513 0.1675365 0
vt 0.9980469 0.08531913 0
vt 0.2969064 0.9358997 0
vt 0.3092029 0.9375256 0
vt 0.4923685 0.1675354 0
vt 0.9980469 0.3306512 0
vt 0.4657698 0.1675327 0
vt 0.4517821 0.1675306 0
vt 0.4391711 0.1675301 0
vt 0.4291552 0.1675352 0
vt 0.9658499 0.3200138 0
vt 0.2365393 0.7131156 0
vt 0.9980469 0.2506501 0
vt 0.2229104 0.7125612 0
vt 0.2092753 0.7131156 0
vt 0.1969794 0.7147413 0
vt 0.9976292 0.943195 0
vt 0.9980469 0.001953125 0
vt 0.001953125 0.9411318 0
vt 0.9976292 0.8509388 0
vt 0.5842353 0.6831112 0
vt 0.9976292 0.7649397 0
vt 0.597168 0.6832514 0
vt 0.9976292 0.6702348 0
vt 0.6094672 0.6875132 0
vt 0.9658499 0.7021106 0
vt 0.9976292 0.5518429 0
vt 0.6199265 0.6954769 0
vt 0.627524 0.7063703 0
vt 0.6315224 0.7191277 0
vt 0.6315215 0.732491 0
vt 0.6275296 0.7451581 0
vt 0.6199316 0.7558913 0
vt 0.609469 0.7636304 0
vt 0.5971702 0.7676319 0
vt 0.5842435 0.7674909 0
vt 0.5719443 0.763229 0
vt 0.561485 0.7552654 0
vt 0.2805621 0.001953125 0
vt 0.5410403 0.7534214 0
vt 0.2805621 0.05872613 0
vt 0.4342402 0.893211 0
vt 0.2527012 0.001953125 0
vt 0.4342402 0.7178851 0
vt 0.5410403 0.9287473 0
vt 0.2527012 0.05872613 0
vt 0.2717181 0.001953125 0
vt 0.4152231 0.7178851 0
vt 0.299579 0.05872613 0
vt 0.4152231 0.893211 0
vt 0.299579 0.001953125 0
vt 0.5220232 0.7534214 0
vt 0.5220232 0.9287473 0
vt 0.2717181 0.05872613 0
vt 0.4083875 0.8214353 0
vt 0.4083875 0.7130172 0
vt 0.001953125 0.001953125 0
vt 0.001953125 0.07459448 0
vt 0.4083875 0.9095956 0
vt 0.4870078 0.4775512 0
vt 0.4870078 0.5729174 0
vt 0.9658499 0.001953125 0
vt 0.9658499 0.0754647 0
vt 0.9980469 0.4804086 0
vt 0.9658499 0.1529766 0
vt 0.9980469 0.4075626 0
vt 0.9658499 0.5030585 0
vt 0.9658499 0.6005844 0
vt 0.972441 0.5482009 0
vt 0.3827187 0.7130172 0
vt 0.03045549 0.001953125 0
vt 0.3827187 0.8214353 0
vt 0.3827187 0.9095956 0
vt 0.3827187 0.9889091 0
vt 0.4584405 0.5729174 0
vt 0.9399366 0.001953125 0
vt 0.9399366 0.0754647 0
vt 0.972441 0.4804086 0
vt 0.9399366 0.1529766 0
vt 0.972441 0.4075626 0
vt 0.9399366 0.234495 0
vt 0.972441 0.3306512 0
vt 0.9399366 0.3200138 0
vt 0.972441 0.2506501 0
vt 0.9399366 0.4095328 0
vt 0.972441 0.1685475 0
vt 0.9399366 0.5030585 0
vt 0.972441 0.08531913 0
vt 0.9399366 0.6005844 0
vt 0.972441 0.943195 0
vt 0.972441 0.001953125 0
vt 0.972441 0.8509388 0
vt 0.972441 0.7649397 0
vt 0.972441 0.6702348 0
vt 0.9399366 0.7021106 0
vt 0.972441 0.5518429 0
vt 0.5538815 0.7443728 0
vt 0.70494 0.8337683 0
vt 0.9178281 0.7192228 0
vt 0.2573447 0.9375256 0
vt 0.9074323 0.7192192 0
vt 0.2696411 0.9358997 0
vt 0.2832769 0.9353391 0
vt 0.5023783 0.1675319 0
vt 0.5498841 0.7182522 0
vt 0.03045549 0.07459448 0
vt 0.5498841 0.7316214 0
vt 0.9074323 0.9770103 0
vt 0.5538819 0.7055842 0
vt 0.5614808 0.694857 0
vt 0.9309339 0.9770087 0
vt 0.3092029 0.7038366 0
vt 0.4584405 0.4775512 0
vt 0.2488351 0.7147413 0
vt 0.05165112 0.6973279 0
vt 0.4291535 0.4157442 0
vt 0.1969794 0.948413 0
vt 0.4083875 0.9889091 0
vt 0.9980469 0.5482009 0
#end 264 textures vertices 

#begin 98 normals 
vn 0.8534 -0.2284 -0.4686
vn 0.752 -0.4345 -0.4958
vn 0.594 -0.598 -0.5381
vn 0.395 -0.7029 -0.5915
vn 0.1744 -0.7392 -0.6506
vn -0.0462 -0.7029 -0.7097
vn -0.2452 -0.598 -0.7631
vn -0.4032 -0.4345 -0.8054
vn -0.5046 -0.2284 -0.8326
vn -0.5395 0 -0.842
vn -0.5046 0.2284 -0.8326
vn -0.4032 0.4345 -0.8054
vn -0.2453 0.598 -0.7631
vn -0.0462 0.7029 -0.7097
vn 0.1744 0.7391 -0.6506
vn 0.395 0.703 -0.5914
vn 0.594 0.598 -0.5381
vn 0.752 0.4344 -0.4958
vn 0.8534 0.2284 -0.4686
vn 0.8883 0 -0.4592
vn 0.5046 0.2284 0.8326
vn 0.5395 0 0.842
vn 0.4031 0.4344 0.8055
vn 0.2452 0.598 0.7631
vn 0.0462 0.703 0.7097
vn -0.1744 0.7391 0.6506
vn -0.395 0.7029 0.5915
vn -0.594 0.598 0.5381
vn -0.752 0.4345 0.4957
vn -0.8534 0.2284 0.4685
vn -0.8883 0 0.4592
vn -0.8534 -0.2284 0.4686
vn -0.752 -0.4345 0.4957
vn -0.594 -0.598 0.5381
vn -0.395 -0.7029 0.5915
vn -0.1744 -0.7392 0.6506
vn 0.0462 -0.7029 0.7097
vn 0.2452 -0.598 0.7631
vn 0.4032 -0.4345 0.8054
vn 0.5045 -0.2284 0.8326
vn -0.7071 -0.5774 0.4082
vn -0.4082 -0.5774 -0.7071
vn 0.7071 -0.5774 -0.4082
vn 0.4082 -0.5774 0.7071
vn -0.7071 0.5774 0.4082
vn 0.4082 0.5774 0.7071
vn 0.7071 0.5774 -0.4082
vn -0.4082 0.5774 -0.7071
vn -0.8087 -0.5545 0.1964
vn -0.5032 -0.719 -0.4793
vn 0 -1 -0
vn -0.2392 -0.7239 0.6471
vn -0.3448 -0.7311 0.5887
vn -0.4528 -0.7274 0.5156
vn 0.5351 -0.6975 0.4766
vn -0.0034 -0.5754 0.8179
vn -0.55 -0.7188 -0.4253
vn 0.5755 -0.6971 0.4276
vn -0.5904 -0.7187 -0.3672
vn 0.6124 -0.6968 0.3734
vn -0.6247 -0.7189 -0.3049
vn 0.6445 -0.6968 0.3148
vn -0.6528 -0.7193 -0.2378
vn 0.6709 -0.6969 0.2535
vn -0.6741 -0.7198 -0.1654
vn 0.6911 -0.6971 0.191
vn -0.6878 -0.7206 -0.0873
vn 0.7049 -0.6975 0.129
vn -0.3727 -0.5553 -0.7435
vn 0.3354 -0.7226 -0.6044
vn 0.2253 -0.7309 -0.6442
vn 0.0976 -0.7281 -0.6785
vn 0.6318 -0.573 -0.522
vn -0.8087 0.5545 0.1964
vn -0.2392 0.7239 0.6471
vn 0 1 -0
vn -0.5032 0.719 -0.4793
vn -0.3448 0.7311 0.5887
vn -0.4528 0.7274 0.5156
vn -0.0034 0.5754 0.8179
vn 0.5351 0.6975 0.4766
vn -0.55 0.7188 -0.4253
vn 0.5755 0.6971 0.4276
vn -0.5904 0.7187 -0.3672
vn 0.6124 0.6968 0.3734
vn -0.6247 0.7189 -0.3049
vn 0.6445 0.6968 0.3148
vn -0.6528 0.7193 -0.2378
vn 0.6709 0.6969 0.2535
vn -0.6741 0.7198 -0.1654
vn 0.6911 0.6971 0.191
vn -0.6878 0.7206 -0.0873
vn 0.7049 0.6975 0.129
vn 0.3354 0.7226 -0.6044
vn -0.3727 0.5553 -0.7435
vn 0.2253 0.7309 -0.6442
vn 0.0976 0.7281 -0.6785
vn 0.6318 0.573 -0.522
#end 98 normals 

#begin 116 faces
o Cylinder033
usemtl wire_115115115
g Cylinder033
s 1
f 1/1/1 2/2/2 3/3/3 4/4/4 5/5/5 6/6/6 7/7/7 8/8/8 9/9/9 10/10/10 11/11/11 12/12/12 13/13/13 14/14/14 15/15/15 16/243/16 17/17/17 18/18/18 19/19/19 20/20/20 
s 8
f 20/248/20 19/247/19 21/21/21 22/22/22 
f 19/247/19 18/245/18 23/23/23 21/21/21 
f 18/246/18 17/244/17 24/24/24 23/253/23 
f 17/244/17 16/16/16 25/256/25 24/24/24 
f 16/144/16 15/143/15 26/26/26 25/164/25 
f 15/143/15 14/141/14 27/27/27 26/26/26 
f 14/141/14 13/139/13 28/28/28 27/27/27 
f 13/139/13 12/260/12 29/29/29 28/28/28 
f 12/161/12 11/160/11 30/30/30 29/262/29 
f 11/160/11 10/159/10 31/31/31 30/30/30 
f 10/159/10 9/157/9 32/32/32 31/31/31 
f 9/157/9 8/259/8 33/33/33 32/32/32 
f 8/155/8 7/154/7 34/34/34 33/261/33 
f 7/154/7 6/153/6 35/35/35 34/34/34 
f 6/153/6 5/152/5 36/36/36 35/35/35 
f 5/152/5 4/146/4 37/37/37 36/36/36 
f 4/146/4 3/150/3 38/38/38 37/37/37 
f 3/150/3 2/249/2 39/39/39 38/38/38 
f 2/149/2 1/148/1 40/40/40 39/257/39 
f 1/148/1 20/248/20 22/22/22 40/40/40 
s 1
f 40/242/40 22/252/22 21/250/21 23/254/23 24/255/24 25/25/25 26/166/26 27/168/27 28/170/28 29/173/29 30/174/30 31/175/31 32/176/32 33/177/33 34/178/34 35/179/35 36/180/36 37/181/37 38/182/38 39/183/39 
o Box031
usemtl wire_115115115
g Box031
s 2
f 41/41/41 42/42/42 43/43/43 44/44/44 
s 4
f 45/45/45 46/46/46 47/47/47 48/48/48 
s 8
f 41/186/41 44/184/44 46/196/46 45/194/45 
s 16
f 44/185/44 43/190/43 47/198/47 46/197/46 
s 32
f 43/191/43 42/188/42 48/192/48 47/199/47 
s 64
f 42/189/42 41/187/41 45/195/45 48/193/48 
o Box030
usemtl wire_115115115
g Box030
s 2
f 49/49/49 50/50/50 51/51/51 52/52/52 
f 52/52/52 51/51/51 53/53/51 54/54/53 
f 54/54/53 53/53/51 55/55/51 56/56/54 
f 56/56/54 55/55/51 57/57/55 58/58/56 
f 50/50/50 59/59/57 60/60/51 51/51/51 
f 51/51/51 60/60/51 61/61/51 53/53/51 
f 53/53/51 61/61/51 62/62/51 55/55/51 
f 55/55/51 62/62/51 63/63/58 57/57/55 
f 59/59/57 64/64/59 65/65/51 60/60/51 
f 60/60/51 65/65/51 66/66/51 61/61/51 
f 61/61/51 66/66/51 67/67/51 62/62/51 
f 62/62/51 67/67/51 68/68/60 63/63/58 
f 64/64/59 69/69/61 70/70/51 65/65/51 
f 65/65/51 70/70/51 71/71/51 66/66/51 
f 66/66/51 71/71/51 72/72/51 67/67/51 
f 67/67/51 72/72/51 73/73/62 68/68/60 
f 69/69/61 74/74/63 75/75/51 70/70/51 
f 70/70/51 75/75/51 76/76/51 71/71/51 
f 71/71/51 76/76/51 77/77/51 72/72/51 
f 72/72/51 77/77/51 78/78/64 73/73/62 
f 74/74/63 79/79/65 80/80/51 75/75/51 
f 75/75/51 80/80/51 81/81/51 76/76/51 
f 76/76/51 81/81/51 82/82/51 77/77/51 
f 77/77/51 82/82/51 83/83/66 78/78/64 
f 79/79/65 84/84/67 85/85/51 80/80/51 
f 80/80/51 85/85/51 86/86/51 81/81/51 
f 81/81/51 86/86/51 87/87/51 82/82/51 
f 82/82/51 87/87/51 88/88/68 83/83/66 
f 84/84/67 89/89/69 90/90/70 85/85/51 
f 85/85/51 90/90/70 91/91/71 86/86/51 
f 86/86/51 91/91/71 92/92/72 87/87/51 
f 87/87/51 92/92/72 93/93/73 88/88/68 
s 4
f 94/94/74 95/95/75 96/96/76 97/97/77 
f 95/95/75 98/98/78 99/99/76 96/96/76 
f 98/98/78 100/100/79 101/101/76 99/99/76 
f 100/100/79 102/102/80 103/103/81 101/101/76 
f 97/97/77 96/96/76 104/104/76 105/105/82 
f 96/96/76 99/99/76 106/106/76 104/104/76 
f 99/99/76 101/101/76 107/107/76 106/106/76 
f 101/101/76 103/103/81 108/108/83 107/107/76 
f 105/105/82 104/104/76 109/109/76 110/110/84 
f 104/104/76 106/106/76 111/111/76 109/109/76 
f 106/106/76 107/107/76 112/112/76 111/111/76 
f 107/107/76 108/108/83 113/113/85 112/112/76 
f 110/110/84 109/109/76 114/114/76 115/115/86 
f 109/109/76 111/111/76 116/116/76 114/114/76 
f 111/111/76 112/112/76 117/117/76 116/116/76 
f 112/112/76 113/113/85 118/118/87 117/117/76 
f 115/115/86 114/114/76 119/119/76 120/120/88 
f 114/114/76 116/116/76 121/121/76 119/119/76 
f 116/116/76 117/117/76 122/122/76 121/121/76 
f 117/117/76 118/118/87 123/123/89 122/122/76 
f 120/120/88 119/119/76 124/124/76 125/125/90 
f 119/119/76 121/121/76 126/126/76 124/124/76 
f 121/121/76 122/122/76 127/127/76 126/126/76 
f 122/122/76 123/123/89 128/128/91 127/127/76 
f 125/125/90 124/124/76 129/129/76 130/130/92 
f 124/124/76 126/126/76 131/131/76 129/129/76 
f 126/126/76 127/127/76 132/132/76 131/131/76 
f 127/127/76 128/128/91 133/133/93 132/132/76 
f 130/130/92 129/129/76 134/134/94 135/135/95 
f 129/129/76 131/131/76 136/136/96 134/134/94 
f 131/131/76 132/132/76 137/137/97 136/136/96 
f 132/132/76 133/133/93 138/138/98 137/137/97 
s 8
f 49/201/49 52/200/52 95/217/75 94/215/74 
f 52/200/52 54/204/53 98/218/78 95/217/75 
f 54/204/53 56/263/54 100/219/79 98/218/78 
f 56/205/54 58/206/56 102/220/80 100/258/79 
s 16
f 58/207/56 57/208/55 103/222/81 102/221/80 
f 57/208/55 63/210/58 108/224/83 103/222/81 
f 63/210/58 68/145/60 113/226/85 108/224/83 
f 68/145/60 73/156/62 118/228/87 113/226/85 
f 73/156/62 78/140/64 123/230/89 118/228/87 
f 78/140/64 83/212/66 128/232/91 123/230/89 
f 83/212/66 88/213/68 133/234/93 128/232/91 
f 88/213/68 93/171/73 138/240/98 133/234/93 
s 32
f 93/172/73 92/169/72 137/239/97 138/241/98 
f 92/169/72 91/167/71 136/238/96 137/239/97 
f 91/167/71 90/165/70 134/237/94 136/238/96 
f 90/165/70 89/162/69 135/235/95 134/237/94 
s 64
f 89/163/69 84/147/67 130/233/92 135/236/95 
f 84/147/67 79/142/65 125/231/90 130/233/92 
f 79/142/65 74/158/63 120/229/88 125/231/90 
f 74/158/63 69/151/61 115/227/86 120/229/88 
f 69/151/61 64/211/59 110/225/84 115/227/86 
f 64/211/59 59/209/57 105/223/82 110/225/84 
f 59/209/57 50/264/50 97/214/77 105/223/82 
f 50/203/50 49/202/49 94/216/74 97/251/77 
#end 116 faces

#ZOMPROPERTIES_03 {
#ZOMPROPERTIES_03 table {Mesh table {SymPlane table {Point vector3d 0 0 0 Normal vector3d 1 0 0 Threshold double 0.01 
#ZOMPROPERTIES_03 Enabled bool false EdgeID int -1 SymEdgeID int -1 UPos double 0.5 LocalMode bool false } RootGroup C
#ZOMPROPERTIES_03 SubMeshGroup {Children table {Tile_0_0 CSubMeshGroup {Children table {} BBoxUV box3d 0 0 0 0 0 0 BBo
#ZOMPROPERTIES_03 x3D box3d 0 0 0 0 0 0 AreaUV double 0.665623 Area3D double 0 IsRoot bool false TopoStable table {Sel
#ZOMPROPERTIES_03 ected bool false Box box3d 0 1 0 1 0 1 U int 0 V int 0 NU int 0 NV int 0 Tiling vector3d 1 1 1 TileR
#ZOMPROPERTIES_03 atioMode string "1:1" } IsTile bool true PolyIDs ints { 0 1 2 20 19 3 4 5 6 7 8 9 10 11 12 13 14 15 
#ZOMPROPERTIES_03 16 17 18 21 22 23 24 25 26 27 28 29 30 31 35 39 43 47 51 55 59 58 57 56 52 48 44 40 36 32 37 38 33 4
#ZOMPROPERTIES_03 1 42 45 46 49 50 53 54 34 60 64 68 72 76 80 84 88 89 90 91 87 83 79 75 71 67 63 62 61 66 65 70 69 74
#ZOMPROPERTIES_03  73 78 77 82 81 86 85 92 93 94 95 96 97 98 99 100 101 102 103 104 105 106 107 108 109 110 111 112 11
#ZOMPROPERTIES_03 3 114 115 } } } BBoxUV box3d 0 0 0 0 0 0 BBox3D box3d 0 0 0 0 0 0 AreaUV double 0 Area3D double 0 Is
#ZOMPROPERTIES_03 Root bool true TopoStable table {Selected bool false Box box3d 0 1 0 1 0 1 U int 0 V int 0 NU int 1 
#ZOMPROPERTIES_03 NV int 1 Tiling vector3d 1 1 1 TileRatioMode string "1:1" Pack table {Rotate table {Mode int 2 Min d
#ZOMPROPERTIES_03 ouble 0 Max double 180 Step double 0 } SpacingSize double 0.00390625 MarginSize double 0.00195312 Re
#ZOMPROPERTIES_03 solution int 200 Scaling table {Mode int 0 } LayoutScalingMode int 2 MaxMutations int 1 } } IsTile b
#ZOMPROPERTIES_03 ool false PolyIDs ints { } } Maps table {Density table {PrimType string "Polygon" Size int 1 Default
#ZOMPROPERTIES_03 Value double 1 ScaleType string "Log" MergeMode string "Average" MinValue double 0.1 MaxValue double
#ZOMPROPERTIES_03  4 Data doubles { r 116 1 } } Pin table {PrimType string "Vertex" Size int 1 DefaultValue double 0 S
#ZOMPROPERTIES_03 caleType string "Normalized" MergeMode string "Max" MinValue double 0 MaxValue double 1 Data doubles
#ZOMPROPERTIES_03  { r 264 0 } } Protect table {PrimType string "Vertex" Size int 1 DefaultValue double 0 ScaleType st
#ZOMPROPERTIES_03 ring "Normalized" MergeMode string "Average" MinValue double -1 MaxValue double 1 Data doubles { r 2
#ZOMPROPERTIES_03 64 0 } } } } }
#ZOMPROPERTIES_03 }

#begin 0 fatal error vertex (that RizomUV cannot handle)
#end 0 fatal error vertex (that RizomUV cannot handle)

#begin 0 error vertex
#end 0 error vertex
