#File written by RizomUV 2020.0.89.gadc9742. Compilation :May  5 2020,11:18:49
mtllib guizijiazi:mtl
#begin vertices
v -94.1039 63.6978 -26.0486
v -94.1039 62.4595 -26.0486
v -69.0189 62.4595 -26.0486
v -69.0189 63.6978 -26.0486
v -94.1039 63.8594 -26.1537
v -94.324 63.8377 -26.1537
v -94.485 63.7786 -26.1537
v -94.544 63.6978 -26.1537
v -94.544 62.4595 -26.1537
v -94.485 62.3788 -26.1537
v -94.324 62.3196 -26.1537
v -94.1039 62.298 -26.1537
v -69.0189 62.298 -26.1537
v -68.7988 62.3196 -26.1537
v -68.6378 62.3788 -26.1537
v -68.5788 62.4595 -26.1537
v -68.5788 63.6978 -26.1537
v -68.6378 63.7786 -26.1537
v -68.7988 63.8377 -26.1537
v -69.0189 63.8594 -26.1537
v -94.1039 63.9776 -26.4408
v -94.485 63.9401 -26.4408
v -94.764 63.8377 -26.4408
v -94.8662 63.6978 -26.4408
v -94.8662 62.4595 -26.4408
v -94.764 62.3196 -26.4408
v -94.485 62.2172 -26.4408
v -94.1039 62.1798 -26.4408
v -69.0189 62.1798 -26.4408
v -68.6378 62.2172 -26.4408
v -68.3588 62.3196 -26.4408
v -68.2566 62.4595 -26.4408
v -68.2566 63.6978 -26.4408
v -68.3588 63.8377 -26.4408
v -68.6378 63.9401 -26.4408
v -69.0189 63.9776 -26.4408
v -94.1039 64.0209 -26.8329
v -94.544 63.9776 -26.8329
v -94.8662 63.8594 -26.8329
v -94.9841 63.6978 -26.8329
v -94.9841 62.4595 -26.8329
v -94.8662 62.298 -26.8329
v -94.544 62.1798 -26.8329
v -94.1039 62.1365 -26.8329
v -69.0189 62.1365 -26.8329
v -68.5788 62.1798 -26.8329
v -68.2566 62.298 -26.8329
v -68.1387 62.4595 -26.8329
v -68.1387 63.6978 -26.8329
v -68.2566 63.8594 -26.8329
v -68.5788 63.9776 -26.8329
v -69.0189 64.0209 -26.8329
v -94.1039 64.0209 -37.16
v -94.544 63.9776 -37.16
v -94.8662 63.8594 -37.16
v -94.9841 63.6978 -37.16
v -94.9841 62.4595 -37.16
v -94.8662 62.298 -37.16
v -94.544 62.1798 -37.16
v -94.1039 62.1365 -37.16
v -69.0189 62.1365 -37.16
v -68.5788 62.1798 -37.16
v -68.2566 62.298 -37.16
v -68.1387 62.4595 -37.16
v -68.1387 63.6978 -37.16
v -68.2566 63.8594 -37.16
v -68.5788 63.9776 -37.16
v -69.0189 64.0209 -37.16
v -94.1039 63.9776 -37.5522
v -94.485 63.9401 -37.5522
v -94.764 63.8377 -37.5522
v -94.8662 63.6978 -37.5522
v -94.8662 62.4595 -37.5522
v -94.764 62.3196 -37.5522
v -94.485 62.2172 -37.5522
v -94.1039 62.1798 -37.5522
v -69.0189 62.1798 -37.5522
v -68.6378 62.2172 -37.5522
v -68.3588 62.3196 -37.5522
v -68.2566 62.4595 -37.5522
v -68.2566 63.6978 -37.5522
v -68.3588 63.8377 -37.5522
v -68.6378 63.9401 -37.5522
v -69.0189 63.9776 -37.5522
v -94.1039 63.8594 -37.8393
v -94.324 63.8377 -37.8393
v -94.485 63.7786 -37.8393
v -94.544 63.6978 -37.8393
v -94.544 62.4595 -37.8393
v -94.485 62.3788 -37.8393
v -94.324 62.3196 -37.8393
v -94.1039 62.298 -37.8393
v -69.0189 62.298 -37.8393
v -68.7988 62.3196 -37.8393
v -68.6378 62.3788 -37.8393
v -68.5788 62.4595 -37.8393
v -68.5788 63.6978 -37.8393
v -68.6378 63.7786 -37.8393
v -68.7988 63.8377 -37.8393
v -69.0189 63.8594 -37.8393
v -94.1039 63.6978 -37.9443
v -94.1039 62.4595 -37.9443
v -69.0189 62.4595 -37.9443
v -69.0189 63.6978 -37.9443
v 31.6564 40.5883 -20.7741
v 32.0217 40.5883 -20.2001
v 32.2827 40.5883 -19.5217
v 32.4392 40.5883 -18.7389
v 11.2619 40.6355 -22.2576
v 10.5835 40.6355 -21.9967
v 10.0095 40.6355 -21.6314
v 9.5398 40.6355 -21.1618
v 9.1745 40.6355 -20.5877
v 8.9136 40.6355 -19.9093
v 8.757 40.6355 -19.1265
v 30.322 40.6355 -22.2576
v 31 40.6355 -22.2576
#end vertices

#begin 184 textures vertices 
vt 0.4187461 0.4848208 0
vt 0.3953208 0.4848208 0
vt 0.3953208 0.01027866 0
vt 0.4187461 0.01027866 0
vt 0.4218032 0.4848208 0
vt 0.4213927 0.4889845 0
vt 0.4202747 0.4920302 0
vt 0.4187461 0.4931463 0
vt 0.3953208 0.4931463 0
vt 0.3937941 0.4920302 0
vt 0.3926742 0.4889845 0
vt 0.3922656 0.4848208 0
vt 0.3922656 0.01027866 0
vt 0.3926742 0.006114946 0
vt 0.3937941 0.00306925 0
vt 0.3953208 0.001953125 0
vt 0.4187461 0.001953125 0
vt 0.4202747 0.00306925 0
vt 0.4213927 0.006114946 0
vt 0.4218032 0.01027866 0
vt 0.4849499 0.9475261 0
vt 0.4849499 0.9539009 0
vt 0.4849499 0.9588477 0
vt 0.4849499 0.9617316 0
vt 0.4849499 0.9838238 0
vt 0.4849499 0.986707 0
vt 0.4849499 0.9916539 0
vt 0.4849499 0.9980286 0
vt 0.4849499 0.4494883 0
vt 0.4849499 0.455863 0
vt 0.4849499 0.4608099 0
vt 0.4849499 0.4636931 0
vt 0.4849499 0.4857853 0
vt 0.4849499 0.4886693 0
vt 0.4849499 0.4936161 0
vt 0.4849499 0.4999909 0
vt 0.4921131 0.9475261 0
vt 0.4921131 0.9539009 0
vt 0.4921131 0.9588477 0
vt 0.4921131 0.9617316 0
vt 0.4921131 0.9838238 0
vt 0.4921131 0.986707 0
vt 0.4921131 0.9916539 0
vt 0.4921131 0.001953125 0
vt 0.4921131 0.4494883 0
vt 0.4921131 0.455863 0
vt 0.4921131 0.4608099 0
vt 0.4921131 0.4636931 0
vt 0.4921131 0.4857853 0
vt 0.4921131 0.4886693 0
vt 0.4921131 0.4936161 0
vt 0.4921131 0.4999909 0
vt 0.5788155 0.1964008 0
vt 0.5705289 0.1964008 0
vt 0.559691 0.1981776 0
vt 0.5566204 0.1981776 0
vt 0.5330916 0.1981776 0
vt 0.1936837 0.001953125 0
vt 0.1936837 0.007935016 0
vt 0.1936837 0.01610581 0
vt 0.1936837 0.4818282 0
vt 0.1936837 0.4899989 0
vt 0.4955836 0.001953125 0
vt 0.4986523 0.001953125 0
vt 0.5221811 0.001953125 0
vt 0.3887592 0.001953125 0
vt 0.3887592 0.007932498 0
vt 0.3887592 0.01609985 0
vt 0.4683105 0.5 0
vt 0.4683105 0.5063749 0
vt 0.4683105 0.5113218 0
vt 0.4683105 0.5142058 0
vt 0.4683105 0.5362984 0
vt 0.4683105 0.5391817 0
vt 0.4683105 0.5441287 0
vt 0.4683105 0.5505035 0
vt 0.4683105 0.9980469 0
vt 0.4683105 0.008327937 0
vt 0.4683105 0.01327496 0
vt 0.4683105 0.01615822 0
vt 0.4683105 0.03825083 0
vt 0.4683105 0.04113481 0
vt 0.4683105 0.04608168 0
vt 0.4683105 0.05245662 0
vt 0.4748951 0.5 0
vt 0.4748951 0.5063749 0
vt 0.4748951 0.5113218 0
vt 0.4748951 0.5142058 0
vt 0.4748951 0.5362984 0
vt 0.4748951 0.5391817 0
vt 0.4748951 0.5441287 0
vt 0.4748951 0.5505035 0
vt 0.4748951 0.9980469 0
vt 0.4748951 0.008327937 0
vt 0.4748951 0.01327496 0
vt 0.4748951 0.01615822 0
vt 0.4748951 0.03825083 0
vt 0.4748951 0.04113481 0
vt 0.4748951 0.04608168 0
vt 0.4748951 0.05245662 0
vt 0.4531846 0.01027838 0
vt 0.42976 0.01027838 0
vt 0.42976 0.4848045 0
vt 0.4531846 0.4848045 0
vt 0.001953125 0.4818282 0
vt 0.1971094 0.4816261 0
vt 0.5788155 0.001953125 0
vt 0.5705289 0.001953125 0
vt 0.5644623 0.001953125 0
vt 0.5566204 0.001953125 0
vt 0.5330916 0.001953125 0
vt 0.5300229 0.001953125 0
vt 0.001953125 0.007935016 0
vt 0.001953125 0.01610581 0
vt 0.001953125 0.4899989 0
vt 0.001953125 0.4959808 0
vt 0.4986523 0.1981776 0
vt 0.5221811 0.1981776 0
vt 0.5252517 0.1981776 0
vt 0.1971094 0.007932498 0
vt 0.1971094 0.01609985 0
vt 0.3887592 0.4816261 0
vt 0.4611443 0.5 0
vt 0.4611443 0.5063749 0
vt 0.4611443 0.5113218 0
vt 0.4611443 0.5142058 0
vt 0.4611443 0.5362984 0
vt 0.4611443 0.5391817 0
vt 0.4611443 0.5441287 0
vt 0.4611443 0.5505035 0
vt 0.4611443 0.9980469 0
vt 0.4611443 0.008327937 0
vt 0.4611443 0.01327496 0
vt 0.4611443 0.01615822 0
vt 0.4611443 0.03825083 0
vt 0.4611443 0.04113481 0
vt 0.4611443 0.04608168 0
vt 0.4611443 0.05245662 0
vt 0.4783639 0.4636931 0
vt 0.4783639 0.9838238 0
vt 0.4783639 0.4857853 0
vt 0.4783639 0.986707 0
vt 0.4783639 0.4886693 0
vt 0.4783639 0.9916539 0
vt 0.4267049 0.01027838 0
vt 0.4849499 0.001953125 0
vt 0.4783639 0.9980286 0
vt 0.4783639 0.001953125 0
vt 0.4683105 0.001953125 0
vt 0.4783639 0.4494883 0
vt 0.4783639 0.455863 0
vt 0.4783639 0.4608099 0
vt 0.4921131 0.9980286 0
vt 0.4783639 0.9617316 0
vt 0.4783639 0.9588477 0
vt 0.4783639 0.9539009 0
vt 0.4783639 0.9475261 0
vt 0.4783639 0.4999909 0
vt 0.4783639 0.4936161 0
vt 0.1971094 0.001953125 0
vt 0.5644623 0.1964008 0
vt 0.559691 0.001953125 0
vt 0.5300229 0.1981776 0
vt 0.001953125 0.001953125 0
vt 0.1936837 0.4959808 0
vt 0.4955836 0.1981776 0
vt 0.5252517 0.001953125 0
vt 0.454713 0.003069212 0
vt 0.4531846 0.001953125 0
vt 0.455831 0.006114805 0
vt 0.4562415 0.01027838 0
vt 0.4562415 0.4848045 0
vt 0.455831 0.4889681 0
vt 0.454713 0.4920137 0
vt 0.4531846 0.4931298 0
vt 0.42976 0.4931298 0
vt 0.4282334 0.4920137 0
vt 0.4271135 0.4889681 0
vt 0.4267049 0.4848045 0
vt 0.4748951 0.001953125 0
vt 0.4271135 0.006114805 0
vt 0.4282334 0.003069212 0
vt 0.42976 0.001953125 0
vt 0.4611443 0.001953125 0
#end 184 textures vertices 

#begin 104 normals 
vn -0.1087 0.1087 0.9881
vn -0.1087 -0.1087 0.9881
vn 0.1087 -0.1087 0.9881
vn 0.1087 0.1087 0.9881
vn -0.0698 0.514 0.8549
vn -0.2654 0.4598 0.8474
vn -0.4598 0.2654 0.8474
vn -0.514 0.0698 0.8549
vn -0.514 -0.0698 0.8549
vn -0.4598 -0.2654 0.8474
vn -0.2654 -0.4598 0.8474
vn -0.0698 -0.514 0.8549
vn 0.0698 -0.514 0.8549
vn 0.2654 -0.4598 0.8474
vn 0.4598 -0.2654 0.8474
vn 0.514 -0.0698 0.8549
vn 0.514 0.0698 0.8549
vn 0.4598 0.2654 0.8474
vn 0.2654 0.4598 0.8474
vn 0.0698 0.514 0.8549
vn -0.1129 0.8653 0.4883
vn -0.438 0.7586 0.4823
vn -0.7586 0.438 0.4823
vn -0.8653 0.1129 0.4883
vn -0.8653 -0.1129 0.4883
vn -0.7586 -0.438 0.4823
vn -0.438 -0.7586 0.4823
vn -0.1129 -0.8653 0.4883
vn 0.1129 -0.8653 0.4883
vn 0.438 -0.7586 0.4823
vn 0.7586 -0.438 0.4823
vn 0.8653 -0.1129 0.4883
vn 0.8653 0.1129 0.4883
vn 0.7586 0.438 0.4823
vn 0.438 0.7586 0.4823
vn 0.1129 0.8653 0.4883
vn -0.1281 0.9834 0.1281
vn -0.4959 0.8589 0.1278
vn -0.8589 0.4959 0.1278
vn -0.9834 0.1281 0.1281
vn -0.9834 -0.1281 0.1281
vn -0.8589 -0.4959 0.1278
vn -0.4959 -0.8589 0.1278
vn -0.1281 -0.9834 0.1281
vn 0.1281 -0.9834 0.1281
vn 0.4959 -0.8589 0.1278
vn 0.8589 -0.4959 0.1278
vn 0.9834 -0.1281 0.1281
vn 0.9834 0.1281 0.1281
vn 0.8589 0.4959 0.1278
vn 0.4959 0.8589 0.1278
vn 0.1281 0.9834 0.1281
vn -0.1281 0.9834 -0.1281
vn -0.4959 0.8589 -0.1278
vn -0.8589 0.4959 -0.1278
vn -0.9834 0.1281 -0.1281
vn -0.9834 -0.1281 -0.1281
vn -0.8589 -0.4959 -0.1278
vn -0.4959 -0.8589 -0.1278
vn -0.1281 -0.9834 -0.1281
vn 0.1281 -0.9834 -0.1281
vn 0.4959 -0.8589 -0.1278
vn 0.8589 -0.4959 -0.1278
vn 0.9834 -0.1281 -0.1281
vn 0.9834 0.1281 -0.1281
vn 0.8589 0.4959 -0.1278
vn 0.4959 0.8589 -0.1278
vn 0.1281 0.9834 -0.1281
vn -0.1129 0.8653 -0.4883
vn -0.438 0.7586 -0.4823
vn -0.7586 0.438 -0.4823
vn -0.8653 0.1129 -0.4883
vn -0.8653 -0.1129 -0.4883
vn -0.7586 -0.438 -0.4823
vn -0.438 -0.7586 -0.4823
vn -0.1129 -0.8653 -0.4883
vn 0.1129 -0.8653 -0.4883
vn 0.438 -0.7586 -0.4823
vn 0.7586 -0.438 -0.4823
vn 0.8653 -0.1129 -0.4883
vn 0.8653 0.1129 -0.4883
vn 0.7586 0.438 -0.4823
vn 0.438 0.7586 -0.4823
vn 0.1129 0.8653 -0.4883
vn -0.0698 0.514 -0.8549
vn -0.2654 0.4598 -0.8474
vn -0.4598 0.2655 -0.8474
vn -0.514 0.0698 -0.8549
vn -0.514 -0.0698 -0.8549
vn -0.4598 -0.2655 -0.8474
vn -0.2654 -0.4598 -0.8474
vn -0.0698 -0.514 -0.8549
vn 0.0698 -0.514 -0.8549
vn 0.2654 -0.4598 -0.8474
vn 0.4598 -0.2654 -0.8474
vn 0.514 -0.0698 -0.8549
vn 0.514 0.0698 -0.8549
vn 0.4598 0.2655 -0.8474
vn 0.2654 0.4598 -0.8474
vn 0.0698 0.514 -0.8549
vn -0.1087 0.1087 -0.9881
vn -0.1087 -0.1087 -0.9881
vn 0.1087 -0.1087 -0.9881
vn 0.1087 0.1087 -0.9881
#end 104 normals 

#begin 114 faces
o ChamferBox034
usemtl wire_115115115
g ChamferBox034
s 1
f 1/1/1 2/2/2 3/3/3 4/4/4 
f 1/1/1 5/5/5 6/6/6 
f 1/1/1 6/6/6 7/7/7 
f 1/1/1 7/7/7 8/8/8 
f 1/1/1 8/8/8 9/9/9 2/2/2 
f 2/2/2 9/9/9 10/10/10 
f 2/2/2 10/10/10 11/11/11 
f 2/2/2 11/11/11 12/12/12 
f 2/2/2 12/12/12 13/13/13 3/3/3 
f 3/3/3 13/13/13 14/14/14 
f 3/3/3 14/14/14 15/15/15 
f 3/3/3 15/15/15 16/16/16 
f 3/3/3 16/16/16 17/17/17 4/4/4 
f 4/4/4 17/17/17 18/18/18 
f 4/4/4 18/18/18 19/19/19 
f 4/4/4 19/19/19 20/20/20 
f 4/4/4 20/20/20 5/5/5 1/1/1 
f 5/157/5 21/21/21 22/22/22 6/156/6 
f 6/156/6 22/22/22 23/23/23 7/155/7 
f 7/155/7 23/23/23 24/24/24 8/154/8 
f 8/154/8 24/24/24 25/25/25 9/140/9 
f 9/140/9 25/25/25 26/26/26 10/142/10 
f 10/142/10 26/26/26 27/27/27 11/144/11 
f 11/144/11 27/27/27 28/28/28 12/147/12 
f 12/148/12 28/146/28 29/29/29 13/150/13 
f 13/150/13 29/29/29 30/30/30 14/151/14 
f 14/151/14 30/30/30 31/31/31 15/152/15 
f 15/152/15 31/31/31 32/32/32 16/139/16 
f 16/139/16 32/32/32 33/33/33 17/141/17 
f 17/141/17 33/33/33 34/34/34 18/143/18 
f 18/143/18 34/34/34 35/35/35 19/159/19 
f 19/159/19 35/35/35 36/36/36 20/158/20 
f 20/158/20 36/36/36 21/21/21 5/157/5 
f 21/21/21 37/37/37 38/38/38 22/22/22 
f 22/22/22 38/38/38 39/39/39 23/23/23 
f 23/23/23 39/39/39 40/40/40 24/24/24 
f 24/24/24 40/40/40 41/41/41 25/25/25 
f 25/25/25 41/41/41 42/42/42 26/26/26 
f 26/26/26 42/42/42 43/43/43 27/27/27 
f 27/27/27 43/43/43 44/153/44 28/28/28 
f 28/146/28 44/44/44 45/45/45 29/29/29 
f 29/29/29 45/45/45 46/46/46 30/30/30 
f 30/30/30 46/46/46 47/47/47 31/31/31 
f 31/31/31 47/47/47 48/48/48 32/32/32 
f 32/32/32 48/48/48 49/49/49 33/33/33 
f 33/33/33 49/49/49 50/50/50 34/34/34 
f 34/34/34 50/50/50 51/51/51 35/35/35 
f 35/35/35 51/51/51 52/52/52 36/36/36 
f 36/36/36 52/52/52 37/37/37 21/21/21 
f 37/107/37 53/53/53 54/54/54 38/108/38 
f 38/108/38 54/54/54 55/161/55 39/109/39 
f 39/162/39 55/55/55 56/56/56 40/110/40 
f 40/110/40 56/56/56 57/57/57 41/111/41 
f 41/111/41 57/57/57 58/163/58 42/112/42 
f 42/164/42 58/58/58 59/59/59 43/113/43 
f 43/113/43 59/59/59 60/60/60 44/114/44 
f 44/114/44 60/60/60 61/61/61 45/105/45 
f 45/105/45 61/61/61 62/62/62 46/115/46 
f 46/115/46 62/62/62 63/165/63 47/116/47 
f 47/166/47 63/63/63 64/64/64 48/117/48 
f 48/117/48 64/64/64 65/65/65 49/118/49 
f 49/118/49 65/65/65 66/167/66 50/119/50 
f 50/160/50 66/66/66 67/67/67 51/120/51 
f 51/120/51 67/67/67 68/68/68 52/121/52 
f 52/121/52 68/68/68 53/122/53 37/106/37 
f 53/123/53 69/69/69 70/70/70 54/124/54 
f 54/124/54 70/70/70 71/71/71 55/125/55 
f 55/125/55 71/71/71 72/72/72 56/126/56 
f 56/126/56 72/72/72 73/73/73 57/127/57 
f 57/127/57 73/73/73 74/74/74 58/128/58 
f 58/128/58 74/74/74 75/75/75 59/129/59 
f 59/129/59 75/75/75 76/76/76 60/130/60 
f 60/130/60 76/76/76 77/77/77 61/131/61 
f 61/184/61 77/149/77 78/78/78 62/132/62 
f 62/132/62 78/78/78 79/79/79 63/133/63 
f 63/133/63 79/79/79 80/80/80 64/134/64 
f 64/134/64 80/80/80 81/81/81 65/135/65 
f 65/135/65 81/81/81 82/82/82 66/136/66 
f 66/136/66 82/82/82 83/83/83 67/137/67 
f 67/137/67 83/83/83 84/84/84 68/138/68 
f 68/138/68 84/84/84 69/69/69 53/123/53 
f 69/69/69 85/85/85 86/86/86 70/70/70 
f 70/70/70 86/86/86 87/87/87 71/71/71 
f 71/71/71 87/87/87 88/88/88 72/72/72 
f 72/72/72 88/88/88 89/89/89 73/73/73 
f 73/73/73 89/89/89 90/90/90 74/74/74 
f 74/74/74 90/90/90 91/91/91 75/75/75 
f 75/75/75 91/91/91 92/92/92 76/76/76 
f 76/76/76 92/92/92 93/93/93 77/77/77 
f 77/149/77 93/180/93 94/94/94 78/78/78 
f 78/78/78 94/94/94 95/95/95 79/79/79 
f 79/79/79 95/95/95 96/96/96 80/80/80 
f 80/80/80 96/96/96 97/97/97 81/81/81 
f 81/81/81 97/97/97 98/98/98 82/82/82 
f 82/82/82 98/98/98 99/99/99 83/83/83 
f 83/83/83 99/99/99 100/100/100 84/84/84 
f 84/84/84 100/100/100 85/85/85 69/69/69 
f 85/171/85 101/101/101 86/170/86 
f 86/170/86 101/101/101 87/168/87 
f 87/168/87 101/101/101 88/169/88 
f 88/169/88 101/101/101 102/102/102 89/183/89 
f 89/183/89 102/102/102 90/182/90 
f 90/182/90 102/102/102 91/181/91 
f 91/181/91 102/102/102 92/145/92 
f 92/145/92 102/102/102 103/103/103 93/179/93 
f 93/179/93 103/103/103 94/178/94 
f 94/178/94 103/103/103 95/177/95 
f 95/177/95 103/103/103 96/176/96 
f 96/176/96 103/103/103 104/104/104 97/175/97 
f 97/175/97 104/104/104 98/174/98 
f 98/174/98 104/104/104 99/173/99 
f 99/173/99 104/104/104 100/172/100 
f 100/172/100 104/104/104 101/101/101 85/171/85 
f 104/104/104 103/103/103 102/102/102 101/101/101 
#end 114 faces

#ZOMPROPERTIES_03 {
#ZOMPROPERTIES_03 table {Mesh table {SymPlane table {Point vector3d 0 0 0 Normal vector3d 1 0 0 Threshold double 0.01 
#ZOMPROPERTIES_03 Enabled bool false EdgeID int -1 SymEdgeID int -1 UPos double 0.5 LocalMode bool false } RootGroup C
#ZOMPROPERTIES_03 SubMeshGroup {Children table {Tile_0_0 CSubMeshGroup {Children table {} BBoxUV box3d 0 0 0 0 0 0 BBo
#ZOMPROPERTIES_03 x3D box3d 0 0 0 0 0 0 AreaUV double 0.257441 Area3D double 0 IsRoot bool false TopoStable table {Sel
#ZOMPROPERTIES_03 ected bool false Box box3d 0 1 0 1 0 1 U int 0 V int 0 NU int 0 NV int 0 Tiling vector3d 1 1 1 TileR
#ZOMPROPERTIES_03 atioMode string "1:1" } IsTile bool true PolyIDs ints { 0 12 13 14 15 11 10 9 8 7 6 5 4 3 2 1 16 17 
#ZOMPROPERTIES_03 32 31 47 46 45 44 43 42 41 40 24 25 26 27 28 29 30 48 18 19 20 21 37 36 38 39 23 22 35 34 33 49 50 5
#ZOMPROPERTIES_03 1 52 53 54 55 56 57 58 59 60 61 62 63 64 65 66 67 83 84 85 69 70 71 72 88 87 86 68 82 81 96 95 94 93
#ZOMPROPERTIES_03  92 91 75 74 73 89 90 76 77 78 79 80 97 98 99 100 101 102 103 104 105 106 107 108 109 110 111 112 11
#ZOMPROPERTIES_03 3 } } } BBoxUV box3d 0 0 0 0 0 0 BBox3D box3d 0 0 0 0 0 0 AreaUV double 0 Area3D double 0 IsRoot boo
#ZOMPROPERTIES_03 l true TopoStable table {Selected bool false Box box3d 0 1 0 1 0 1 U int 0 V int 0 NU int 1 NV int 1
#ZOMPROPERTIES_03  Tiling vector3d 1 1 1 TileRatioMode string "1:1" Pack table {Rotate table {Mode int 2 Min double 0 
#ZOMPROPERTIES_03 Max double 180 Step double 0 } SpacingSize double 0.00390625 MarginSize double 0.00195312 Resolution
#ZOMPROPERTIES_03  int 200 Scaling table {Mode int 0 } LayoutScalingMode int 2 MaxMutations int 1 } } IsTile bool fals
#ZOMPROPERTIES_03 e PolyIDs ints { } } Maps table {Density table {PrimType string "Polygon" Size int 1 DefaultValue do
#ZOMPROPERTIES_03 uble 1 ScaleType string "Log" MergeMode string "Average" MinValue double 0.1 MaxValue double 4 Data 
#ZOMPROPERTIES_03 doubles { r 114 1 } } Pin table {PrimType string "Vertex" Size int 1 DefaultValue double 0 ScaleType
#ZOMPROPERTIES_03  string "Normalized" MergeMode string "Max" MinValue double 0 MaxValue double 1 Data doubles { r 184
#ZOMPROPERTIES_03  0 } } Protect table {PrimType string "Vertex" Size int 1 DefaultValue double 0 ScaleType string "No
#ZOMPROPERTIES_03 rmalized" MergeMode string "Average" MinValue double -1 MaxValue double 1 Data doubles { r 184 0 } }
#ZOMPROPERTIES_03  } } }
#ZOMPROPERTIES_03 }

#begin 0 fatal error vertex (that RizomUV cannot handle)
#end 0 fatal error vertex (that RizomUV cannot handle)

#begin 0 error vertex
#end 0 error vertex
