#File written by RizomUV 2020.0.89.gadc9742. Compilation :May  5 2020,11:18:49
mtllib pot-up:mtl
#begin vertices
v 27.2132 62.2741 -20.6987
v 26.9278 62.2741 -20.2044
v 26.4905 62.2741 -19.8374
v 25.9541 62.2741 -19.6422
v 25.3832 62.2741 -19.6422
v 24.8468 62.2741 -19.8374
v 24.4095 62.2741 -20.2044
v 24.1241 62.2741 -20.6987
v 24.025 62.2741 -21.2609
v 24.1241 62.2741 -21.8231
v 24.4095 62.2741 -22.3174
v 24.8468 62.2741 -22.6844
v 25.3832 62.2741 -22.8796
v 25.9541 62.2741 -22.8796
v 26.4905 62.2741 -22.6844
v 26.9278 62.2741 -22.3174
v 27.2132 62.2741 -21.8231
v 27.3123 62.2741 -21.2609
v 27.2132 161.2977 -21.8231
v 27.3123 161.2977 -21.2609
v 26.9278 161.2977 -22.3174
v 26.4905 161.2977 -22.6844
v 25.9541 161.2977 -22.8796
v 25.3832 161.2977 -22.8796
v 24.8468 161.2977 -22.6844
v 24.4095 161.2977 -22.3174
v 24.1241 161.2977 -21.8231
v 24.025 161.2977 -21.2609
v 24.1241 161.2977 -20.6987
v 24.4095 161.2977 -20.2044
v 24.8468 161.2977 -19.8374
v 25.3832 161.2977 -19.6422
v 25.9541 161.2977 -19.6422
v 26.4905 161.2977 -19.8374
v 26.9278 161.2977 -20.2044
v 27.2132 161.2977 -20.6987
v 21.1045 61.2872 -27.9832
v 21.1045 61.2872 -14.7367
v 38.0534 61.2872 -14.7367
v 38.0534 61.2872 -27.9832
v 21.1045 61.2007 -28.5591
v 20.8165 61.2007 -28.482
v 20.6057 61.2007 -28.2712
v 20.5285 61.2007 -27.9832
v 20.5285 61.2007 -14.7367
v 20.6057 61.2007 -14.4487
v 20.8165 61.2007 -14.2379
v 21.1045 61.2007 -14.1608
v 38.0534 61.2007 -14.1608
v 38.3414 61.2007 -14.2379
v 38.5522 61.2007 -14.4487
v 38.6293 61.2007 -14.7367
v 38.6293 61.2007 -27.9832
v 38.5522 61.2007 -28.2712
v 38.3414 61.2007 -28.482
v 38.0534 61.2007 -28.5591
v 21.1045 60.9644 -28.9807
v 20.6057 60.9644 -28.8471
v 20.2405 60.9644 -28.482
v 20.1069 60.9644 -27.9832
v 20.1069 60.9644 -14.7367
v 20.2405 60.9644 -14.2379
v 20.6057 60.9644 -13.8728
v 21.1045 60.9644 -13.7391
v 38.0534 60.9644 -13.7391
v 38.5522 60.9644 -13.8728
v 38.9173 60.9644 -14.2379
v 39.051 60.9644 -14.7367
v 39.051 60.9644 -27.9832
v 38.9173 60.9644 -28.482
v 38.5522 60.9644 -28.8471
v 38.0534 60.9644 -28.9807
v 21.1045 60.6417 -29.1351
v 20.5285 60.6417 -28.9807
v 20.1069 60.6417 -28.5591
v 19.9526 60.6417 -27.9832
v 19.9526 60.6417 -14.7367
v 20.1069 60.6417 -14.1608
v 20.5285 60.6417 -13.7391
v 21.1045 60.6417 -13.5848
v 38.0534 60.6417 -13.5848
v 38.6293 60.6417 -13.7391
v 39.051 60.6417 -14.1608
v 39.2053 60.6417 -14.7367
v 39.2053 60.6417 -27.9832
v 39.051 60.6417 -28.5591
v 38.6293 60.6417 -28.9807
v 38.0534 60.6417 -29.1351
v 21.1045 58.7972 -29.1351
v 20.5285 58.7972 -28.9807
v 20.1069 58.7972 -28.5591
v 19.9526 58.7972 -27.9832
v 19.9526 58.7972 -14.7367
v 20.1069 58.7972 -14.1608
v 20.5285 58.7972 -13.7391
v 21.1045 58.7972 -13.5848
v 38.0534 58.7972 -13.5848
v 38.6293 58.7972 -13.7391
v 39.051 58.7972 -14.1608
v 39.2053 58.7972 -14.7367
v 39.2053 58.7972 -27.9832
v 39.051 58.7972 -28.5591
v 38.6293 58.7972 -28.9807
v 38.0534 58.7972 -29.1351
v 21.1045 58.4745 -28.9807
v 20.6057 58.4745 -28.8471
v 20.2405 58.4745 -28.482
v 20.1069 58.4745 -27.9832
v 20.1069 58.4745 -14.7367
v 20.2405 58.4745 -14.2379
v 20.6057 58.4745 -13.8728
v 21.1045 58.4745 -13.7391
v 38.0534 58.4745 -13.7391
v 38.5522 58.4745 -13.8728
v 38.9173 58.4745 -14.2379
v 39.051 58.4745 -14.7367
v 39.051 58.4745 -27.9832
v 38.9173 58.4745 -28.482
v 38.5522 58.4745 -28.8471
v 38.0534 58.4745 -28.9807
v 21.1045 58.2382 -28.5591
v 20.8165 58.2382 -28.482
v 20.6057 58.2382 -28.2712
v 20.5285 58.2382 -27.9832
v 20.5285 58.2382 -14.7367
v 20.6057 58.2382 -14.4487
v 20.8165 58.2382 -14.2379
v 21.1045 58.2382 -14.1608
v 38.0534 58.2382 -14.1608
v 38.3414 58.2382 -14.2379
v 38.5522 58.2382 -14.4487
v 38.6293 58.2382 -14.7367
v 38.6293 58.2382 -27.9832
v 38.5522 58.2382 -28.2712
v 38.3414 58.2382 -28.482
v 38.0534 58.2382 -28.5591
v 21.1045 58.1517 -27.9832
v 21.1045 58.1517 -14.7367
v 38.0534 58.1517 -14.7367
v 38.0534 58.1517 -27.9832
#end vertices

#begin 266 textures vertices 
vt 0.5481459 0.02485631 0
vt 0.5447377 0.02891819 0
vt 0.5401453 0.0315705 0
vt 0.5349232 0.03249129 0
vt 0.5297003 0.03157063 0
vt 0.5251078 0.02891982 0
vt 0.521699 0.0248571 0
vt 0.5198851 0.01987473 0
vt 0.5198851 0.0145716 0
vt 0.5216983 0.009588102 0
vt 0.5251064 0.00552622 0
vt 0.5296989 0.002873906 0
vt 0.534921 0.001953125 0
vt 0.3801045 0.001953125 0
vt 0.5447364 0.005524588 0
vt 0.5481452 0.009587308 0
vt 0.5499591 0.01456968 0
vt 0.5499591 0.01987281 0
vt 0.3326664 0.001953125 0
vt 0.3380953 0.001953125 0
vt 0.3278931 0.001953125 0
vt 0.3747088 0.9980469 0
vt 0.4962133 0.002873776 0
vt 0.3580346 0.9705794 0
vt 0.3632815 0.9705794 0
vt 0.3675591 0.9705794 0
vt 0.3081092 0.9581909 0
vt 0.3135382 0.9581909 0
vt 0.3189672 0.9581909 0
vt 0.3237405 0.9581909 0
vt 0.006277998 0.9812911 0
vt 0.01158296 0.9812911 0
vt 0.01722913 0.9812911 0
vt 0.0225341 0.9812911 0
vt 0.02685897 0.9812911 0
vt 0.3435243 0.001953125 0
vt 0.2956591 0.164877 0
vt 0.1725096 0.164877 0
vt 0.1725096 0.007307131 0
vt 0.2956591 0.007307131 0
vt 0.3010131 0.164877 0
vt 0.3002964 0.1675545 0
vt 0.2983366 0.1695143 0
vt 0.2956591 0.170232 0
vt 0.1725096 0.170232 0
vt 0.1698321 0.1695143 0
vt 0.1678723 0.1675545 0
vt 0.1671556 0.164877 0
vt 0.1671556 0.007307131 0
vt 0.1678723 0.004629663 0
vt 0.1698321 0.002669905 0
vt 0.1725096 0.001953125 0
vt 0.2956591 0.001953125 0
vt 0.2983366 0.002669905 0
vt 0.3002964 0.004629663 0
vt 0.3010131 0.007307131 0
vt 0.399297 0.1601043 0
vt 0.399297 0.1646001 0
vt 0.399297 0.1690957 0
vt 0.399297 0.1735912 0
vt 0.399297 0.2971951 0
vt 0.399297 0.3016907 0
vt 0.399297 0.3061864 0
vt 0.399297 0.3106823 0
vt 0.399297 0.4688334 0
vt 0.399297 0.473329 0
vt 0.399297 0.4778246 0
vt 0.399297 0.4823203 0
vt 0.399297 0.6059241 0
vt 0.399297 0.6104197 0
vt 0.399297 0.6149152 0
vt 0.399297 0.6194107 0
vt 0.402619 0.1601043 0
vt 0.402619 0.1646001 0
vt 0.402619 0.1690957 0
vt 0.402619 0.1735912 0
vt 0.402619 0.2971951 0
vt 0.402619 0.3016907 0
vt 0.402619 0.3061864 0
vt 0.402619 0.3106823 0
vt 0.402619 0.4688334 0
vt 0.402619 0.473329 0
vt 0.402619 0.4778246 0
vt 0.402619 0.4823203 0
vt 0.402619 0.6059241 0
vt 0.402619 0.6104197 0
vt 0.402619 0.6149152 0
vt 0.402619 0.001953125 0
vt 0.5635046 0.02068747 0
vt 0.5576542 0.02068747 0
vt 0.4634724 0.001953125 0
vt 0.4634724 0.007341708 0
vt 0.4634724 0.1312866 0
vt 0.4634724 0.1366752 0
vt 0.4232633 0.001953125 0
vt 0.4232633 0.007334937 0
vt 0.4232633 0.1656957 0
vt 0.4232633 0.1710766 0
vt 0.4834647 0.001953125 0
vt 0.4834647 0.007310543 0
vt 0.4834647 0.1305386 0
vt 0.443349 0.001953125 0
vt 0.443349 0.005891764 0
vt 0.443349 0.01127062 0
vt 0.3870293 0.001953125 0
vt 0.3870293 0.006450656 0
vt 0.3870293 0.01094797 0
vt 0.3870293 0.01544528 0
vt 0.3870293 0.1390968 0
vt 0.3870293 0.1435941 0
vt 0.3870293 0.1480916 0
vt 0.3870293 0.1525891 0
vt 0.3870293 0.3108013 0
vt 0.3870293 0.3152986 0
vt 0.3870293 0.3197959 0
vt 0.3870293 0.3242933 0
vt 0.3870293 0.4479448 0
vt 0.3870293 0.4524422 0
vt 0.3870293 0.4569393 0
vt 0.3870293 0.4614366 0
vt 0.3914537 0.001953125 0
vt 0.3914537 0.006450656 0
vt 0.3914537 0.01094797 0
vt 0.3914537 0.01544528 0
vt 0.3914537 0.1390968 0
vt 0.3914537 0.1435941 0
vt 0.3914537 0.1480916 0
vt 0.3914537 0.1525891 0
vt 0.3914537 0.3108013 0
vt 0.3914537 0.3152986 0
vt 0.3914537 0.3197959 0
vt 0.3914537 0.3242933 0
vt 0.3914537 0.4479448 0
vt 0.3914537 0.4524422 0
vt 0.3914537 0.4569393 0
vt 0.3914537 0.4614366 0
vt 0.03632918 0.164877 0
vt 0.1594788 0.164877 0
vt 0.1594788 0.007307131 0
vt 0.03632918 0.007307131 0
vt 0.3482976 0.9581909 0
vt 0.4060294 0.1710766 0
vt 0.3435243 0.9581909 0
vt 0.0225341 0.001953125 0
vt 0.01722913 0.001953125 0
vt 0.01158296 0.001953125 0
vt 0.006277998 0.001953125 0
vt 0.001953125 0.001953125 0
vt 0.3189672 0.001953125 0
vt 0.4261215 0.1695718 0
vt 0.5635046 0.001953125 0
vt 0.3135382 0.001953125 0
vt 0.5576542 0.001953125 0
vt 0.3081092 0.001953125 0
vt 0.5533721 0.001953125 0
vt 0.3033359 0.001953125 0
vt 0.4462137 0.007341708 0
vt 0.3632815 0.001953125 0
vt 0.4462137 0.1312866 0
vt 0.3580346 0.001953125 0
vt 0.4462137 0.1366752 0
vt 0.3524502 0.001953125 0
vt 0.4261215 0.005891764 0
vt 0.3524502 0.9705794 0
vt 0.4261215 0.01127062 0
vt 0.5014362 0.001953125 0
vt 0.443349 0.1695718 0
vt 0.3837047 0.6196487 0
vt 0.5066583 0.002873906 0
vt 0.3837047 0.006450656 0
vt 0.5112508 0.00552622 0
vt 0.3837047 0.01094797 0
vt 0.5146589 0.009588102 0
vt 0.3837047 0.01544528 0
vt 0.5164721 0.0145716 0
vt 0.3837047 0.1390968 0
vt 0.5164721 0.01987473 0
vt 0.3837047 0.1435941 0
vt 0.5146583 0.0248571 0
vt 0.3837047 0.1480916 0
vt 0.5112494 0.02891982 0
vt 0.3837047 0.1525891 0
vt 0.5066569 0.03157063 0
vt 0.3837047 0.3108013 0
vt 0.501434 0.03249129 0
vt 0.3837047 0.3152986 0
vt 0.496212 0.0315705 0
vt 0.3837047 0.3197959 0
vt 0.4916195 0.02891819 0
vt 0.3837047 0.3242933 0
vt 0.4462137 0.140621 0
vt 0.4060294 0.007334937 0
vt 0.4060294 0.1656957 0
vt 0.4060294 0.1750167 0
vt 0.4663059 0.007310543 0
vt 0.4663059 0.1305386 0
vt 0.4663059 0.135896 0
vt 0.3837047 0.4479448 0
vt 0.3837047 0.4524422 0
vt 0.3837047 0.4569393 0
vt 0.3837047 0.4614366 0
vt 0.4916208 0.005524588 0
vt 0.5401439 0.002873776 0
vt 0.3801045 0.9980469 0
vt 0.3747088 0.001953125 0
vt 0.3278931 0.9581909 0
vt 0.3703099 0.001953125 0
vt 0.3703099 0.9980469 0
vt 0.488212 0.009587308 0
vt 0.4863981 0.01456968 0
vt 0.3237405 0.001953125 0
vt 0.4863981 0.01987281 0
vt 0.3326664 0.9581909 0
vt 0.3380953 0.9581909 0
vt 0.4882113 0.02485631 0
vt 0.02685897 0.001953125 0
vt 0.4232633 0.1750167 0
vt 0.3482976 0.001953125 0
vt 0.001953125 0.9812911 0
vt 0.3675591 0.001953125 0
vt 0.3033359 0.9581909 0
vt 0.394867 0.4823203 0
vt 0.394867 0.6059241 0
vt 0.394867 0.6104197 0
vt 0.394867 0.6149152 0
vt 0.394867 0.6194107 0
vt 0.394867 0.001953125 0
vt 0.03097517 0.007307131 0
vt 0.399297 0.001953125 0
vt 0.3870293 0.6196487 0
vt 0.394867 0.1601043 0
vt 0.394867 0.1646001 0
vt 0.394867 0.1690957 0
vt 0.394867 0.1735912 0
vt 0.394867 0.2971951 0
vt 0.394867 0.3016907 0
vt 0.394867 0.3061864 0
vt 0.394867 0.3106823 0
vt 0.394867 0.4688334 0
vt 0.394867 0.473329 0
vt 0.394867 0.4778246 0
vt 0.402619 0.6194107 0
vt 0.4462137 0.001953125 0
vt 0.5533721 0.02068747 0
vt 0.4634724 0.140621 0
vt 0.164116 0.1675545 0
vt 0.4060294 0.001953125 0
vt 0.164116 0.004629663 0
vt 0.4663059 0.001953125 0
vt 0.4834647 0.135896 0
vt 0.03632918 0.001953125 0
vt 0.4261215 0.001953125 0
vt 0.3837047 0.001953125 0
vt 0.03169196 0.004629663 0
vt 0.3914537 0.6196487 0
vt 0.03097517 0.164877 0
vt 0.03169196 0.1675545 0
vt 0.03365171 0.1695143 0
vt 0.03632918 0.170232 0
vt 0.1594788 0.170232 0
vt 0.1621562 0.1695143 0
vt 0.1648328 0.164877 0
vt 0.1648328 0.007307131 0
vt 0.1621562 0.002669905 0
vt 0.1594788 0.001953125 0
vt 0.03365171 0.002669905 0
#end 266 textures vertices 

#begin 140 normals 
vn 0.6976 -0.67 0.2539
vn 0.5687 -0.67 0.4772
vn 0.3712 -0.67 0.6429
vn 0.1289 -0.67 0.7311
vn -0.1289 -0.6701 0.731
vn -0.3712 -0.6701 0.6428
vn -0.5687 -0.67 0.4772
vn -0.6976 -0.67 0.2539
vn -0.7423 -0.6701 0
vn -0.6975 -0.6701 -0.2539
vn -0.5687 -0.67 -0.4772
vn -0.3712 -0.6701 -0.6428
vn -0.1289 -0.6701 -0.731
vn 0.1289 -0.67 -0.7311
vn 0.3712 -0.67 -0.6429
vn 0.5687 -0.67 -0.4772
vn 0.6975 -0.6701 -0.2539
vn 0.7423 -0.6701 0
vn 0.6975 0.6701 -0.2539
vn 0.7423 0.6701 0
vn 0.5687 0.67 -0.4772
vn 0.3712 0.67 -0.6429
vn 0.1289 0.67 -0.7311
vn -0.1289 0.6701 -0.731
vn -0.3712 0.6701 -0.6428
vn -0.5687 0.67 -0.4772
vn -0.6975 0.6701 -0.2539
vn -0.7423 0.6701 0
vn -0.6976 0.67 0.2539
vn -0.5687 0.67 0.4772
vn -0.3712 0.6701 0.6428
vn -0.1289 0.6701 0.731
vn 0.1289 0.67 0.7311
vn 0.3712 0.67 0.6429
vn 0.5687 0.67 0.4772
vn 0.6976 0.67 0.2539
vn -0.1087 0.9881 -0.1087
vn -0.1087 0.9881 0.1087
vn 0.1087 0.9881 0.1087
vn 0.1087 0.9881 -0.1087
vn -0.0698 0.8549 -0.514
vn -0.2655 0.8474 -0.4598
vn -0.4598 0.8474 -0.2655
vn -0.514 0.8549 -0.0698
vn -0.514 0.8549 0.0698
vn -0.4598 0.8474 0.2655
vn -0.2655 0.8474 0.4598
vn -0.0698 0.8549 0.514
vn 0.0698 0.8549 0.514
vn 0.2655 0.8474 0.4598
vn 0.4598 0.8474 0.2655
vn 0.514 0.8549 0.0698
vn 0.514 0.8549 -0.0698
vn 0.4598 0.8474 -0.2655
vn 0.2655 0.8474 -0.4598
vn 0.0698 0.8549 -0.514
vn -0.1129 0.4883 -0.8653
vn -0.438 0.4823 -0.7586
vn -0.7586 0.4823 -0.438
vn -0.8653 0.4883 -0.1129
vn -0.8653 0.4883 0.1129
vn -0.7586 0.4823 0.438
vn -0.438 0.4823 0.7586
vn -0.1129 0.4883 0.8653
vn 0.1129 0.4883 0.8653
vn 0.438 0.4823 0.7586
vn 0.7586 0.4823 0.438
vn 0.8653 0.4883 0.1129
vn 0.8653 0.4883 -0.1129
vn 0.7586 0.4823 -0.438
vn 0.438 0.4823 -0.7586
vn 0.1129 0.4883 -0.8653
vn -0.1281 0.1282 -0.9834
vn -0.4959 0.1278 -0.8589
vn -0.8589 0.1278 -0.4959
vn -0.9834 0.1281 -0.1281
vn -0.9834 0.1281 0.1281
vn -0.8589 0.1278 0.4959
vn -0.4959 0.1278 0.8589
vn -0.1281 0.1282 0.9834
vn 0.1281 0.1282 0.9834
vn 0.4959 0.1278 0.8589
vn 0.8589 0.1278 0.4959
vn 0.9834 0.1281 0.1281
vn 0.9834 0.1281 -0.1281
vn 0.8589 0.1278 -0.4959
vn 0.4959 0.1278 -0.8589
vn 0.1281 0.1282 -0.9834
vn -0.1281 -0.1282 -0.9834
vn -0.4959 -0.1278 -0.8589
vn -0.8589 -0.1278 -0.4959
vn -0.9834 -0.1281 -0.1281
vn -0.9834 -0.1281 0.1281
vn -0.8589 -0.1278 0.4959
vn -0.4959 -0.1278 0.8589
vn -0.1281 -0.1282 0.9834
vn 0.1281 -0.1282 0.9834
vn 0.4959 -0.1278 0.8589
vn 0.8589 -0.1278 0.4959
vn 0.9834 -0.1281 0.1281
vn 0.9834 -0.1281 -0.1281
vn 0.8589 -0.1278 -0.4959
vn 0.4959 -0.1278 -0.8589
vn 0.1281 -0.1282 -0.9834
vn -0.1129 -0.4883 -0.8653
vn -0.438 -0.4823 -0.7586
vn -0.7586 -0.4823 -0.438
vn -0.8653 -0.4883 -0.1129
vn -0.8653 -0.4883 0.1129
vn -0.7586 -0.4823 0.438
vn -0.438 -0.4823 0.7586
vn -0.1129 -0.4883 0.8653
vn 0.1129 -0.4883 0.8653
vn 0.438 -0.4823 0.7586
vn 0.7586 -0.4823 0.438
vn 0.8653 -0.4883 0.1129
vn 0.8653 -0.4883 -0.1129
vn 0.7586 -0.4823 -0.438
vn 0.438 -0.4823 -0.7586
vn 0.1129 -0.4883 -0.8653
vn -0.0698 -0.8549 -0.514
vn -0.2655 -0.8474 -0.4598
vn -0.4598 -0.8474 -0.2655
vn -0.514 -0.8549 -0.0698
vn -0.514 -0.8549 0.0698
vn -0.4598 -0.8474 0.2655
vn -0.2655 -0.8474 0.4598
vn -0.0698 -0.8549 0.514
vn 0.0698 -0.8549 0.514
vn 0.2655 -0.8474 0.4598
vn 0.4598 -0.8474 0.2655
vn 0.514 -0.8549 0.0698
vn 0.514 -0.8549 -0.0698
vn 0.4598 -0.8474 -0.2655
vn 0.2655 -0.8474 -0.4598
vn 0.0698 -0.8549 -0.514
vn -0.1087 -0.9881 -0.1087
vn -0.1087 -0.9881 0.1087
vn 0.1087 -0.9881 0.1087
vn 0.1087 -0.9881 -0.1087
#end 140 normals 

#begin 134 faces
o Cylinder013
usemtl wire_115115115
g Cylinder013
s 1
f 1/1/1 2/2/2 3/3/3 4/4/4 5/5/5 6/6/6 7/7/7 8/8/8 9/9/9 10/10/10 11/11/11 12/12/12 13/13/13 14/203/14 15/15/15 16/16/16 17/17/17 18/18/18 
s 8
f 18/214/18 17/213/17 19/19/19 20/20/20 
f 17/213/17 16/206/16 21/21/21 19/19/19 
f 16/207/16 15/205/15 22/22/22 21/208/21 
f 15/205/15 14/14/14 23/204/23 22/22/22 
f 14/162/14 13/160/13 24/24/24 23/164/23 
f 13/160/13 12/158/12 25/25/25 24/24/24 
f 12/158/12 11/220/11 26/26/26 25/25/25 
f 11/156/11 10/154/10 27/27/27 26/221/26 
f 10/154/10 9/152/9 28/28/28 27/27/27 
f 9/152/9 8/149/8 29/29/29 28/28/28 
f 8/149/8 7/211/7 30/30/30 29/29/29 
f 7/148/7 6/147/6 31/31/31 30/219/30 
f 6/147/6 5/146/5 32/32/32 31/31/31 
f 5/146/5 4/145/4 33/33/33 32/32/32 
f 4/145/4 3/144/3 34/34/34 33/33/33 
f 3/144/3 2/216/2 35/35/35 34/34/34 
f 2/141/2 1/143/1 36/36/36 35/218/35 
f 1/143/1 18/214/18 20/20/20 36/36/36 
s 1
f 36/215/36 20/212/20 19/210/19 21/209/21 22/202/22 23/23/23 24/166/24 25/169/25 26/171/26 27/173/27 28/175/28 29/177/29 30/179/30 31/181/31 32/183/32 33/185/33 34/187/34 35/189/35 
o ChamferBox004
usemtl wire_115115115
g ChamferBox004
s 1
f 37/37/37 38/38/38 39/39/39 40/40/40 
f 37/37/37 41/41/41 42/42/42 
f 37/37/37 42/42/42 43/43/43 
f 37/37/37 43/43/43 44/44/44 
f 37/37/37 44/44/44 45/45/45 38/38/38 
f 38/38/38 45/45/45 46/46/46 
f 38/38/38 46/46/46 47/47/47 
f 38/38/38 47/47/47 48/48/48 
f 38/38/38 48/48/48 49/49/49 39/39/39 
f 39/39/39 49/49/49 50/50/50 
f 39/39/39 50/50/50 51/51/51 
f 39/39/39 51/51/51 52/52/52 
f 39/39/39 52/52/52 53/53/53 40/40/40 
f 40/40/40 53/53/53 54/54/54 
f 40/40/40 54/54/54 55/55/55 
f 40/40/40 55/55/55 56/56/56 
f 40/40/40 56/56/56 41/41/41 37/37/37 
f 41/231/41 57/57/57 58/58/58 42/232/42 
f 42/232/42 58/58/58 59/59/59 43/233/43 
f 43/233/43 59/59/59 60/60/60 44/234/44 
f 44/234/44 60/60/60 61/61/61 45/235/45 
f 45/235/45 61/61/61 62/62/62 46/236/46 
f 46/236/46 62/62/62 63/63/63 47/237/47 
f 47/237/47 63/63/63 64/64/64 48/238/48 
f 48/238/48 64/64/64 65/65/65 49/239/49 
f 49/239/49 65/65/65 66/66/66 50/240/50 
f 50/240/50 66/66/66 67/67/67 51/241/51 
f 51/241/51 67/67/67 68/68/68 52/222/52 
f 52/222/52 68/68/68 69/69/69 53/223/53 
f 53/223/53 69/69/69 70/70/70 54/224/54 
f 54/224/54 70/70/70 71/71/71 55/225/55 
f 55/225/55 71/71/71 72/72/72 56/226/56 
f 56/227/56 72/229/72 57/57/57 41/231/41 
f 57/57/57 73/73/73 74/74/74 58/58/58 
f 58/58/58 74/74/74 75/75/75 59/59/59 
f 59/59/59 75/75/75 76/76/76 60/60/60 
f 60/60/60 76/76/76 77/77/77 61/61/61 
f 61/61/61 77/77/77 78/78/78 62/62/62 
f 62/62/62 78/78/78 79/79/79 63/63/63 
f 63/63/63 79/79/79 80/80/80 64/64/64 
f 64/64/64 80/80/80 81/81/81 65/65/65 
f 65/65/65 81/81/81 82/82/82 66/66/66 
f 66/66/66 82/82/82 83/83/83 67/67/67 
f 67/67/67 83/83/83 84/84/84 68/68/68 
f 68/68/68 84/84/84 85/85/85 69/69/69 
f 69/69/69 85/85/85 86/86/86 70/70/70 
f 70/70/70 86/86/86 87/87/87 71/71/71 
f 71/71/71 87/87/87 88/242/88 72/72/72 
f 72/229/72 88/88/88 73/73/73 57/57/57 
f 73/151/73 89/89/89 90/90/90 74/153/74 
f 74/153/74 90/90/90 91/244/91 75/155/75 
f 75/243/75 91/91/91 92/92/92 76/157/76 
f 76/157/76 92/92/92 93/93/93 77/159/77 
f 77/159/77 93/93/93 94/94/94 78/161/78 
f 78/161/78 94/94/94 95/245/95 79/191/79 
f 79/247/79 95/95/95 96/96/96 80/192/80 
f 80/192/80 96/96/96 97/97/97 81/193/81 
f 81/193/81 97/97/97 98/98/98 82/142/82 
f 82/142/82 98/98/98 99/217/99 83/194/83 
f 83/249/83 99/99/99 100/100/100 84/195/84 
f 84/195/84 100/100/100 101/101/101 85/196/85 
f 85/196/85 101/101/101 102/250/102 86/197/86 
f 86/252/86 102/102/102 103/103/103 87/163/87 
f 87/163/87 103/103/103 104/104/104 88/165/88 
f 88/165/88 104/104/104 89/167/89 73/150/73 
f 89/253/89 105/105/105 106/106/106 90/170/90 
f 90/170/90 106/106/106 107/107/107 91/172/91 
f 91/172/91 107/107/107 108/108/108 92/174/92 
f 92/174/92 108/108/108 109/109/109 93/176/93 
f 93/176/93 109/109/109 110/110/110 94/178/94 
f 94/178/94 110/110/110 111/111/111 95/180/95 
f 95/180/95 111/111/111 112/112/112 96/182/96 
f 96/182/96 112/112/112 113/113/113 97/184/97 
f 97/184/97 113/113/113 114/114/114 98/186/98 
f 98/186/98 114/114/114 115/115/115 99/188/99 
f 99/188/99 115/115/115 116/116/116 100/190/100 
f 100/190/100 116/116/116 117/117/117 101/198/101 
f 101/198/101 117/117/117 118/118/118 102/199/102 
f 102/199/102 118/118/118 119/119/119 103/200/103 
f 103/200/103 119/119/119 120/120/120 104/201/104 
f 104/201/104 120/120/120 105/230/105 89/168/89 
f 105/105/105 121/121/121 122/122/122 106/106/106 
f 106/106/106 122/122/122 123/123/123 107/107/107 
f 107/107/107 123/123/123 124/124/124 108/108/108 
f 108/108/108 124/124/124 125/125/125 109/109/109 
f 109/109/109 125/125/125 126/126/126 110/110/110 
f 110/110/110 126/126/126 127/127/127 111/111/111 
f 111/111/111 127/127/127 128/128/128 112/112/112 
f 112/112/112 128/128/128 129/129/129 113/113/113 
f 113/113/113 129/129/129 130/130/130 114/114/114 
f 114/114/114 130/130/130 131/131/131 115/115/115 
f 115/115/115 131/131/131 132/132/132 116/116/116 
f 116/116/116 132/132/132 133/133/133 117/117/117 
f 117/117/117 133/133/133 134/134/134 118/118/118 
f 118/118/118 134/134/134 135/135/135 119/119/119 
f 119/119/119 135/135/135 136/136/136 120/120/120 
f 120/120/120 136/136/136 121/255/121 105/230/105 
f 121/256/121 137/137/137 122/257/122 
f 122/257/122 137/137/137 123/258/123 
f 123/258/123 137/137/137 124/259/124 
f 124/259/124 137/137/137 138/138/138 125/260/125 
f 125/260/125 138/138/138 126/261/126 
f 126/261/126 138/138/138 127/246/127 
f 127/246/127 138/138/138 128/262/128 
f 128/262/128 138/138/138 139/139/139 129/263/129 
f 129/263/129 139/139/139 130/248/130 
f 130/248/130 139/139/139 131/264/131 
f 131/264/131 139/139/139 132/265/132 
f 132/265/132 139/139/139 140/140/140 133/251/133 
f 133/251/133 140/140/140 134/266/134 
f 134/266/134 140/140/140 135/254/135 
f 135/254/135 140/140/140 136/228/136 
f 136/228/136 140/140/140 137/137/137 121/256/121 
f 140/140/140 139/139/139 138/138/138 137/137/137 
#end 134 faces

#ZOMPROPERTIES_03 {
#ZOMPROPERTIES_03 table {Mesh table {SymPlane table {Point vector3d 0 0 0 Normal vector3d 1 0 0 Threshold double 0.01 
#ZOMPROPERTIES_03 Enabled bool false EdgeID int -1 SymEdgeID int -1 UPos double 0.5 LocalMode bool false } RootGroup C
#ZOMPROPERTIES_03 SubMeshGroup {Children table {Tile_0_0 CSubMeshGroup {Children table {} BBoxUV box3d 0 0 0 0 0 0 BBo
#ZOMPROPERTIES_03 x3D box3d 0 0 0 0 0 0 AreaUV double 0.154559 Area3D double 0 IsRoot bool false TopoStable table {Sel
#ZOMPROPERTIES_03 ected bool false Box box3d 0 1 0 1 0 1 U int 0 V int 0 NU int 0 NV int 0 Tiling vector3d 1 1 1 TileR
#ZOMPROPERTIES_03 atioMode string "1:1" } IsTile bool true PolyIDs ints { 0 1 2 18 17 3 4 5 6 7 8 9 10 11 12 13 14 15 
#ZOMPROPERTIES_03 16 19 20 32 33 34 35 31 30 29 28 27 26 25 24 23 22 21 36 37 38 39 40 41 42 43 44 45 46 47 48 49 50 5
#ZOMPROPERTIES_03 1 67 66 65 64 63 62 61 60 59 58 57 56 55 54 53 68 52 69 70 71 72 73 74 75 76 77 78 79 80 81 82 83 84
#ZOMPROPERTIES_03  85 86 87 88 89 90 91 92 93 94 95 96 97 98 99 100 116 115 114 113 112 111 110 109 108 107 106 105 10
#ZOMPROPERTIES_03 4 103 102 101 117 118 119 120 121 122 123 124 125 126 127 128 129 130 131 132 133 } } } BBoxUV box3d
#ZOMPROPERTIES_03  0 0 0 0 0 0 BBox3D box3d 0 0 0 0 0 0 AreaUV double 0 Area3D double 0 IsRoot bool true TopoStable ta
#ZOMPROPERTIES_03 ble {Selected bool false Box box3d 0 1 0 1 0 1 U int 0 V int 0 NU int 1 NV int 1 Tiling vector3d 1 1
#ZOMPROPERTIES_03  1 TileRatioMode string "1:1" Pack table {Rotate table {Mode int 2 Min double 0 Max double 180 Step 
#ZOMPROPERTIES_03 double 0 } SpacingSize double 0.00390625 MarginSize double 0.00195312 Resolution int 200 Scaling tab
#ZOMPROPERTIES_03 le {Mode int 0 } LayoutScalingMode int 2 MaxMutations int 1 } } IsTile bool false PolyIDs ints { } }
#ZOMPROPERTIES_03  Maps table {Density table {PrimType string "Polygon" Size int 1 DefaultValue double 1 ScaleType str
#ZOMPROPERTIES_03 ing "Log" MergeMode string "Average" MinValue double 0.1 MaxValue double 4 Data doubles { r 134 1 } 
#ZOMPROPERTIES_03 } Pin table {PrimType string "Vertex" Size int 1 DefaultValue double 0 ScaleType string "Normalized"
#ZOMPROPERTIES_03  MergeMode string "Max" MinValue double 0 MaxValue double 1 Data doubles { r 266 0 } } Protect table
#ZOMPROPERTIES_03  {PrimType string "Vertex" Size int 1 DefaultValue double 0 ScaleType string "Normalized" MergeMode 
#ZOMPROPERTIES_03 string "Average" MinValue double -1 MaxValue double 1 Data doubles { r 266 0 } } } } }
#ZOMPROPERTIES_03 }

#begin 0 fatal error vertex (that RizomUV cannot handle)
#end 0 fatal error vertex (that RizomUV cannot handle)

#begin 0 error vertex
#end 0 error vertex
