#File written by RizomUV 2020.0.89.gadc9742. Compilation :May  5 2020,11:18:49
mtllib floor:mtl
#begin vertices
v -174.8186 -2.0982 106.3654
v -174.8186 -7.7436 106.3654
v 186.2727 -7.7436 106.3654
v 186.2727 -2.0982 106.3654
v -174.8186 -1.7595 105.9087
v -175.8764 -1.8049 105.9087
v -176.6509 -1.9289 105.9087
v -176.9343 -2.0982 105.9087
v -176.9343 -7.7436 105.9087
v -176.6509 -7.9129 105.9087
v -175.8764 -8.0369 105.9087
v -174.8186 -8.0823 105.9087
v 186.2727 -8.0823 105.9087
v 187.3306 -8.0369 105.9087
v 188.105 -7.9129 105.9087
v 188.3885 -7.7436 105.9087
v 188.3885 -2.0982 105.9087
v 188.105 -1.9289 105.9087
v 187.3306 -1.8049 105.9087
v 186.2727 -1.7595 105.9087
v -174.8186 -1.5115 104.661
v -176.6509 -1.5901 104.661
v -177.9922 -1.8049 104.661
v -178.4832 -2.0982 104.661
v -178.4832 -7.7436 104.661
v -177.9922 -8.0369 104.661
v -176.6509 -8.2517 104.661
v -174.8186 -8.3303 104.661
v 186.2727 -8.3303 104.661
v 188.105 -8.2517 104.661
v 189.4464 -8.0369 104.661
v 189.9373 -7.7436 104.661
v 189.9373 -2.0982 104.661
v 189.4464 -1.8049 104.661
v 188.105 -1.5901 104.661
v 186.2727 -1.5115 104.661
v -174.8186 -1.4208 102.9567
v -176.9343 -1.5115 102.9567
v -178.4832 -1.7595 102.9567
v -179.0501 -2.0982 102.9567
v -179.0501 -7.7436 102.9567
v -178.4832 -8.0823 102.9567
v -176.9343 -8.3303 102.9567
v -174.8186 -8.421 102.9567
v 186.2727 -8.421 102.9567
v 188.3885 -8.3303 102.9567
v 189.9373 -8.0823 102.9567
v 190.5042 -7.7436 102.9567
v 190.5042 -2.0982 102.9567
v 189.9373 -1.7595 102.9567
v 188.3885 -1.5115 102.9567
v 186.2727 -1.4208 102.9567
v -174.8186 -1.4208 -51.5704
v -176.9343 -1.5116 -51.5704
v -178.4832 -1.7595 -51.5704
v -179.0501 -2.0982 -51.5704
v -179.0501 -7.7436 -51.5704
v -178.4832 -8.0823 -51.5704
v -176.9343 -8.3303 -51.5704
v -174.8186 -8.421 -51.5704
v 186.2727 -8.421 -51.5704
v 188.3885 -8.3303 -51.5704
v 189.9373 -8.0823 -51.5704
v 190.5042 -7.7436 -51.5704
v 190.5042 -2.0982 -51.5704
v 189.9373 -1.7595 -51.5704
v 188.3885 -1.5116 -51.5704
v 186.2727 -1.4208 -51.5704
v -174.8186 -1.5116 -53.2748
v -176.6509 -1.5902 -53.2748
v -177.9922 -1.8049 -53.2748
v -178.4832 -2.0982 -53.2748
v -178.4832 -7.7436 -53.2748
v -177.9922 -8.0369 -53.2748
v -176.6509 -8.2517 -53.2748
v -174.8186 -8.3303 -53.2748
v 186.2727 -8.3303 -53.2748
v 188.105 -8.2517 -53.2748
v 189.4464 -8.0369 -53.2748
v 189.9373 -7.7436 -53.2748
v 189.9373 -2.0982 -53.2748
v 189.4464 -1.8049 -53.2748
v 188.105 -1.5902 -53.2748
v 186.2727 -1.5116 -53.2748
v -174.8186 -1.7595 -54.5224
v -175.8764 -1.8049 -54.5224
v -176.6509 -1.9289 -54.5224
v -176.9343 -2.0982 -54.5224
v -176.9343 -7.7436 -54.5224
v -176.6509 -7.9129 -54.5224
v -175.8764 -8.0369 -54.5224
v -174.8186 -8.0823 -54.5224
v 186.2727 -8.0823 -54.5224
v 187.3306 -8.0369 -54.5224
v 188.105 -7.9129 -54.5224
v 188.3885 -7.7436 -54.5224
v 188.3885 -2.0982 -54.5224
v 188.105 -1.9289 -54.5224
v 187.3306 -1.8049 -54.5224
v 186.2727 -1.7595 -54.5224
v -174.8186 -2.0982 -54.9791
v -174.8186 -7.7436 -54.9791
v 186.2727 -7.7436 -54.9791
v 186.2727 -2.0982 -54.9791
#end vertices

#begin 200 textures vertices 
vt 0.4680357 0.516197 0
vt 0.4600427 0.516197 0
vt 0.4600427 0.004948764 0
vt 0.4680357 0.004948764 0
vt 0.5306949 0.003623857 0
vt 0.5306949 0.001953125 0
vt 0.4682754 0.5187913 0
vt 0.4680357 0.5191925 0
vt 0.4600427 0.5191925 0
vt 0.459803 0.5187913 0
vt 0.4596274 0.5176947 0
vt 0.5420656 0.5739461 0
vt 0.5420656 0.003624015 0
vt 0.5420656 0.001953125 0
vt 0.459803 0.002354516 0
vt 0.4600427 0.001953125 0
vt 0.4680357 0.001953125 0
vt 0.4682754 0.002354516 0
vt 0.4684509 0.003450944 0
vt 0.5306949 0.5739459 0
vt 0.4760105 0.5 0
vt 0.4760105 0.5022801 0
vt 0.4760105 0.503969 0
vt 0.4760105 0.50468 0
vt 0.4760105 0.5122027 0
vt 0.4760105 0.5129137 0
vt 0.4760105 0.5146026 0
vt 0.4760105 0.5168827 0
vt 0.4760105 0.9980469 0
vt 0.4760105 0.004233275 0
vt 0.4760105 0.005922179 0
vt 0.4760105 0.006633172 0
vt 0.4760105 0.01415582 0
vt 0.4760105 0.01486682 0
vt 0.4760105 0.01655572 0
vt 0.4760105 0.01883587 0
vt 0.4783414 0.5 0
vt 0.4783414 0.5022801 0
vt 0.4783414 0.503969 0
vt 0.4783414 0.50468 0
vt 0.4783414 0.5122027 0
vt 0.4783414 0.5129137 0
vt 0.4783414 0.5146026 0
vt 0.4783414 0.5168827 0
vt 0.4783414 0.001953125 0
vt 0.4783414 0.004233275 0
vt 0.4783414 0.005922179 0
vt 0.4783414 0.006633172 0
vt 0.4783414 0.01415582 0
vt 0.4783414 0.01486682 0
vt 0.4783414 0.01655572 0
vt 0.4783414 0.01883587 0
vt 0.5136387 0.001953125 0
vt 0.516674 0.001953125 0
vt 0.5188961 0.001953125 0
vt 0.5102591 0.220691 0
vt 0.2207591 0.001953125 0
vt 0.2207591 0.002755839 0
vt 0.2207591 0.004949038 0
vt 0.2207591 0.00794481 0
vt 0.2207591 0.5192399 0
vt 0.2207591 0.5222358 0
vt 0.2207591 0.5244289 0
vt 0.4988883 0.220691 0
vt 0.4424559 0.001953125 0
vt 0.4424559 0.002755716 0
vt 0.4424559 0.004948436 0
vt 0.4424559 0.007943888 0
vt 0.4847005 0.4999823 0
vt 0.4847005 0.5022623 0
vt 0.4847005 0.5039511 0
vt 0.4847005 0.5046621 0
vt 0.4847005 0.5121845 0
vt 0.4847005 0.5128955 0
vt 0.4847005 0.5145843 0
vt 0.4847005 0.5168643 0
vt 0.4847005 0.9980114 0
vt 0.4847005 0.004233194 0
vt 0.4847005 0.005922037 0
vt 0.4847005 0.006633005 0
vt 0.4847005 0.01415539 0
vt 0.4847005 0.01486636 0
vt 0.4847005 0.01655518 0
vt 0.4847005 0.01883526 0
vt 0.4868697 0.4999823 0
vt 0.4868697 0.5022623 0
vt 0.4868697 0.5039511 0
vt 0.4868697 0.5046621 0
vt 0.4868697 0.5121845 0
vt 0.4868697 0.5128955 0
vt 0.4868697 0.5145843 0
vt 0.4868697 0.5168643 0
vt 0.4868697 0.9980114 0
vt 0.4868697 0.004233194 0
vt 0.4868697 0.005922037 0
vt 0.4868697 0.006633005 0
vt 0.4868697 0.01415539 0
vt 0.4868697 0.01486636 0
vt 0.4868697 0.01655518 0
vt 0.4868697 0.01883526 0
vt 0.5371016 0.5739461 0
vt 0.4538222 0.516197 0
vt 0.5257308 0.5739459 0
vt 0.4458292 0.004948764 0
vt 0.001953125 0.5192399 0
vt 0.2236835 0.5191603 0
vt 0.5136387 0.223647 0
vt 0.516674 0.223647 0
vt 0.5188961 0.223647 0
vt 0.5197094 0.223647 0
vt 0.5022679 0.001953125 0
vt 0.001953125 0.002755839 0
vt 0.001953125 0.004949038 0
vt 0.001953125 0.00794481 0
vt 0.001953125 0.5222358 0
vt 0.001953125 0.5244289 0
vt 0.001953125 0.5252316 0
vt 0.4908971 0.001953125 0
vt 0.2236835 0.002755716 0
vt 0.2236835 0.004948436 0
vt 0.2236835 0.007943888 0
vt 0.4424559 0.5191603 0
vt 0.482369 0.4999823 0
vt 0.482369 0.5022623 0
vt 0.482369 0.5039511 0
vt 0.482369 0.5046621 0
vt 0.482369 0.5121845 0
vt 0.482369 0.5128955 0
vt 0.482369 0.5145843 0
vt 0.482369 0.5168643 0
vt 0.482369 0.9980114 0
vt 0.482369 0.004233194 0
vt 0.482369 0.005922037 0
vt 0.482369 0.006633005 0
vt 0.482369 0.01415539 0
vt 0.482369 0.01486636 0
vt 0.482369 0.01655518 0
vt 0.482369 0.01883526 0
vt 0.4738409 0.01883587 0
vt 0.5314162 0.5739459 0
vt 0.4738409 0.01415582 0
vt 0.4908971 0.220691 0
vt 0.5314162 0.003623857 0
vt 0.4738409 0.01486682 0
vt 0.542787 0.5739461 0
vt 0.4738409 0.01655572 0
vt 0.5306949 0.5756168 0
vt 0.482369 0.001953125 0
vt 0.542787 0.003624015 0
vt 0.4738409 0.006633172 0
vt 0.4738409 0.5 0
vt 0.4738409 0.5022801 0
vt 0.4684509 0.5176947 0
vt 0.4738409 0.503969 0
vt 0.4738409 0.50468 0
vt 0.4738409 0.5122027 0
vt 0.4738409 0.5129137 0
vt 0.4738409 0.5146026 0
vt 0.5420656 0.5756168 0
vt 0.4738409 0.5168827 0
vt 0.4847005 0.001953125 0
vt 0.4738409 0.9980469 0
vt 0.4738409 0.001953125 0
vt 0.5250095 0.5739459 0
vt 0.4868697 0.001953125 0
vt 0.4760105 0.001953125 0
vt 0.4738409 0.004233275 0
vt 0.4596274 0.003450944 0
vt 0.4738409 0.005922179 0
vt 0.4783414 0.9980469 0
vt 0.5197094 0.001953125 0
vt 0.5102591 0.001953125 0
vt 0.5022679 0.220691 0
vt 0.001953125 0.001953125 0
vt 0.2207591 0.5252316 0
vt 0.4988883 0.001953125 0
vt 0.2236835 0.001953125 0
vt 0.4454139 0.003450944 0
vt 0.5363802 0.001953125 0
vt 0.5363802 0.003624015 0
vt 0.5363802 0.5739461 0
vt 0.5371016 0.003624015 0
vt 0.4458292 0.516197 0
vt 0.5363802 0.5756168 0
vt 0.4454139 0.5176947 0
vt 0.4455895 0.5187913 0
vt 0.4458292 0.5191925 0
vt 0.4538222 0.5191925 0
vt 0.4540619 0.5187913 0
vt 0.4542375 0.5176947 0
vt 0.5250095 0.001953125 0
vt 0.5257308 0.003623857 0
vt 0.5250095 0.003623857 0
vt 0.4538222 0.004948764 0
vt 0.5250095 0.5756168 0
vt 0.4542375 0.003450944 0
vt 0.4540619 0.002354516 0
vt 0.4538222 0.001953125 0
vt 0.4458292 0.001953125 0
vt 0.4455895 0.002354516 0
#end 200 textures vertices 

#begin 104 normals 
vn -0.1087 0.1087 0.9881
vn -0.1087 -0.1087 0.9881
vn 0.1087 -0.1087 0.9881
vn 0.1087 0.1087 0.9881
vn -0.0698 0.514 0.8549
vn -0.2655 0.4598 0.8474
vn -0.4598 0.2654 0.8474
vn -0.514 0.0698 0.8549
vn -0.514 -0.0698 0.8549
vn -0.4598 -0.2654 0.8474
vn -0.2655 -0.4598 0.8474
vn -0.0698 -0.514 0.8549
vn 0.0698 -0.514 0.8549
vn 0.2655 -0.4598 0.8474
vn 0.4598 -0.2654 0.8474
vn 0.514 -0.0698 0.8549
vn 0.514 0.0698 0.8549
vn 0.4598 0.2654 0.8474
vn 0.2655 0.4598 0.8474
vn 0.0698 0.514 0.8549
vn -0.1129 0.8653 0.4883
vn -0.438 0.7586 0.4823
vn -0.7586 0.438 0.4823
vn -0.8653 0.1129 0.4883
vn -0.8653 -0.1129 0.4883
vn -0.7586 -0.438 0.4823
vn -0.438 -0.7586 0.4823
vn -0.1129 -0.8653 0.4883
vn 0.1129 -0.8653 0.4883
vn 0.438 -0.7586 0.4823
vn 0.7586 -0.438 0.4823
vn 0.8653 -0.1129 0.4883
vn 0.8653 0.1129 0.4883
vn 0.7586 0.438 0.4823
vn 0.438 0.7586 0.4823
vn 0.1129 0.8653 0.4883
vn -0.1281 0.9834 0.1281
vn -0.4959 0.8589 0.1278
vn -0.8589 0.4959 0.1278
vn -0.9834 0.1281 0.1281
vn -0.9834 -0.1281 0.1281
vn -0.8589 -0.4959 0.1278
vn -0.4959 -0.8589 0.1278
vn -0.1281 -0.9834 0.1281
vn 0.1281 -0.9834 0.1281
vn 0.4959 -0.8589 0.1278
vn 0.8589 -0.4959 0.1278
vn 0.9834 -0.1281 0.1281
vn 0.9834 0.1281 0.1281
vn 0.8589 0.4959 0.1278
vn 0.4959 0.8589 0.1278
vn 0.1281 0.9834 0.1281
vn -0.1281 0.9834 -0.1281
vn -0.4959 0.8589 -0.1278
vn -0.8589 0.4959 -0.1278
vn -0.9834 0.1281 -0.1281
vn -0.9834 -0.1281 -0.1281
vn -0.8589 -0.4959 -0.1278
vn -0.4959 -0.8589 -0.1278
vn -0.1281 -0.9834 -0.1281
vn 0.1281 -0.9834 -0.1281
vn 0.4959 -0.8589 -0.1278
vn 0.8589 -0.4959 -0.1278
vn 0.9834 -0.1281 -0.1281
vn 0.9834 0.1281 -0.1281
vn 0.8589 0.4959 -0.1278
vn 0.4959 0.8589 -0.1278
vn 0.1281 0.9834 -0.1281
vn -0.1129 0.8653 -0.4883
vn -0.438 0.7586 -0.4823
vn -0.7586 0.438 -0.4823
vn -0.8653 0.1129 -0.4883
vn -0.8653 -0.1129 -0.4883
vn -0.7586 -0.438 -0.4823
vn -0.438 -0.7586 -0.4823
vn -0.1129 -0.8653 -0.4883
vn 0.1129 -0.8653 -0.4883
vn 0.438 -0.7586 -0.4823
vn 0.7586 -0.438 -0.4823
vn 0.8653 -0.1129 -0.4883
vn 0.8653 0.1129 -0.4883
vn 0.7586 0.438 -0.4823
vn 0.438 0.7586 -0.4823
vn 0.1129 0.8653 -0.4883
vn -0.0698 0.514 -0.8549
vn -0.2655 0.4598 -0.8474
vn -0.4598 0.2654 -0.8474
vn -0.514 0.0698 -0.8549
vn -0.514 -0.0698 -0.8549
vn -0.4598 -0.2654 -0.8474
vn -0.2655 -0.4598 -0.8474
vn -0.0698 -0.514 -0.8549
vn 0.0698 -0.514 -0.8549
vn 0.2655 -0.4598 -0.8474
vn 0.4598 -0.2654 -0.8474
vn 0.514 -0.0698 -0.8549
vn 0.514 0.0698 -0.8549
vn 0.4598 0.2654 -0.8474
vn 0.2655 0.4598 -0.8474
vn 0.0698 0.514 -0.8549
vn -0.1087 0.1087 -0.9881
vn -0.1087 -0.1087 -0.9881
vn 0.1087 -0.1087 -0.9881
vn 0.1087 0.1087 -0.9881
#end 104 normals 

#begin 114 faces
o ChamferBox038
usemtl wire_115115115
g ChamferBox038
s 1
f 1/1/1 2/2/2 3/3/3 4/4/4 
f 1/143/1 5/5/5 6/6/6 
f 1/1/1 6/153/6 7/7/7 
f 1/1/1 7/7/7 8/8/8 
f 1/1/1 8/8/8 9/9/9 2/2/2 
f 2/2/2 9/9/9 10/10/10 
f 2/2/2 10/10/10 11/11/11 
f 2/145/2 11/159/11 12/12/12 
f 2/145/2 12/12/12 13/13/13 3/149/3 
f 3/149/3 13/13/13 14/14/14 
f 3/3/3 14/168/14 15/15/15 
f 3/3/3 15/15/15 16/16/16 
f 3/3/3 16/16/16 17/17/17 4/4/4 
f 4/4/4 17/17/17 18/18/18 
f 4/4/4 18/18/18 19/19/19 
f 4/140/4 19/147/19 20/20/20 
f 4/140/4 20/20/20 5/5/5 1/143/1 
f 5/151/5 21/21/21 22/22/22 6/152/6 
f 6/152/6 22/22/22 23/23/23 7/154/7 
f 7/154/7 23/23/23 24/24/24 8/155/8 
f 8/155/8 24/24/24 25/25/25 9/156/9 
f 9/156/9 25/25/25 26/26/26 10/157/10 
f 10/157/10 26/26/26 27/27/27 11/158/11 
f 11/158/11 27/27/27 28/28/28 12/160/12 
f 12/160/12 28/28/28 29/29/29 13/162/13 
f 13/163/13 29/166/29 30/30/30 14/167/14 
f 14/167/14 30/30/30 31/31/31 15/169/15 
f 15/169/15 31/31/31 32/32/32 16/150/16 
f 16/150/16 32/32/32 33/33/33 17/141/17 
f 17/141/17 33/33/33 34/34/34 18/144/18 
f 18/144/18 34/34/34 35/35/35 19/146/19 
f 19/146/19 35/35/35 36/36/36 20/139/20 
f 20/139/20 36/36/36 21/21/21 5/151/5 
f 21/21/21 37/37/37 38/38/38 22/22/22 
f 22/22/22 38/38/38 39/39/39 23/23/23 
f 23/23/23 39/39/39 40/40/40 24/24/24 
f 24/24/24 40/40/40 41/41/41 25/25/25 
f 25/25/25 41/41/41 42/42/42 26/26/26 
f 26/26/26 42/42/42 43/43/43 27/27/27 
f 27/27/27 43/43/43 44/44/44 28/28/28 
f 28/28/28 44/44/44 45/170/45 29/29/29 
f 29/166/29 45/45/45 46/46/46 30/30/30 
f 30/30/30 46/46/46 47/47/47 31/31/31 
f 31/31/31 47/47/47 48/48/48 32/32/32 
f 32/32/32 48/48/48 49/49/49 33/33/33 
f 33/33/33 49/49/49 50/50/50 34/34/34 
f 34/34/34 50/50/50 51/51/51 35/35/35 
f 35/35/35 51/51/51 52/52/52 36/36/36 
f 36/36/36 52/52/52 37/37/37 21/21/21 
f 37/107/37 53/53/53 54/54/54 38/108/38 
f 38/108/38 54/54/54 55/55/55 39/109/39 
f 39/109/39 55/55/55 56/171/56 40/110/40 
f 40/172/40 56/56/56 57/173/57 41/111/41 
f 41/174/41 57/57/57 58/58/58 42/112/42 
f 42/112/42 58/58/58 59/59/59 43/113/43 
f 43/113/43 59/59/59 60/60/60 44/114/44 
f 44/114/44 60/60/60 61/61/61 45/105/45 
f 45/105/45 61/61/61 62/62/62 46/115/46 
f 46/115/46 62/62/62 63/63/63 47/116/47 
f 47/116/47 63/63/63 64/175/64 48/117/48 
f 48/176/48 64/64/64 65/142/65 49/118/49 
f 49/177/49 65/65/65 66/66/66 50/119/50 
f 50/119/50 66/66/66 67/67/67 51/120/51 
f 51/120/51 67/67/67 68/68/68 52/121/52 
f 52/121/52 68/68/68 53/122/53 37/106/37 
f 53/123/53 69/69/69 70/70/70 54/124/54 
f 54/124/54 70/70/70 71/71/71 55/125/55 
f 55/125/55 71/71/71 72/72/72 56/126/56 
f 56/126/56 72/72/72 73/73/73 57/127/57 
f 57/127/57 73/73/73 74/74/74 58/128/58 
f 58/128/58 74/74/74 75/75/75 59/129/59 
f 59/129/59 75/75/75 76/76/76 60/130/60 
f 60/130/60 76/76/76 77/77/77 61/131/61 
f 61/148/61 77/161/77 78/78/78 62/132/62 
f 62/132/62 78/78/78 79/79/79 63/133/63 
f 63/133/63 79/79/79 80/80/80 64/134/64 
f 64/134/64 80/80/80 81/81/81 65/135/65 
f 65/135/65 81/81/81 82/82/82 66/136/66 
f 66/136/66 82/82/82 83/83/83 67/137/67 
f 67/137/67 83/83/83 84/84/84 68/138/68 
f 68/138/68 84/84/84 69/69/69 53/123/53 
f 69/69/69 85/85/85 86/86/86 70/70/70 
f 70/70/70 86/86/86 87/87/87 71/71/71 
f 71/71/71 87/87/87 88/88/88 72/72/72 
f 72/72/72 88/88/88 89/89/89 73/73/73 
f 73/73/73 89/89/89 90/90/90 74/74/74 
f 74/74/74 90/90/90 91/91/91 75/75/75 
f 75/75/75 91/91/91 92/92/92 76/76/76 
f 76/76/76 92/92/92 93/93/93 77/77/77 
f 77/161/77 93/165/93 94/94/94 78/78/78 
f 78/78/78 94/94/94 95/95/95 79/79/79 
f 79/79/79 95/95/95 96/96/96 80/80/80 
f 80/80/80 96/96/96 97/97/97 81/81/81 
f 81/81/81 97/97/97 98/98/98 82/82/82 
f 82/82/82 98/98/98 99/99/99 83/83/83 
f 83/83/83 99/99/99 100/100/100 84/84/84 
f 84/84/84 100/100/100 85/85/85 69/69/69 
f 85/181/85 101/101/101 86/184/86 
f 86/185/86 101/183/101 87/186/87 
f 87/186/87 101/183/101 88/187/88 
f 88/187/88 101/183/101 102/102/102 89/188/89 
f 89/188/89 102/102/102 90/189/90 
f 90/189/90 102/102/102 91/190/91 
f 91/191/91 102/192/102 92/193/92 
f 92/193/92 102/192/102 103/103/103 93/164/93 
f 93/164/93 103/103/103 94/195/94 
f 94/196/94 103/194/103 95/197/95 
f 95/197/95 103/194/103 96/198/96 
f 96/198/96 103/194/103 104/104/104 97/199/97 
f 97/199/97 104/104/104 98/200/98 
f 98/200/98 104/104/104 99/178/99 
f 99/179/99 104/182/104 100/180/100 
f 100/180/100 104/182/104 101/101/101 85/181/85 
f 104/104/104 103/194/103 102/102/102 101/183/101 
#end 114 faces

#ZOMPROPERTIES_03 {
#ZOMPROPERTIES_03 table {Mesh table {SymPlane table {Point vector3d 0 0 0 Normal vector3d 1 0 0 Threshold double 0.01 
#ZOMPROPERTIES_03 Enabled bool false EdgeID int -1 SymEdgeID int -1 UPos double 0.5 LocalMode bool false } RootGroup C
#ZOMPROPERTIES_03 SubMeshGroup {Children table {Tile_0_0 CSubMeshGroup {Children table {} BBoxUV box3d 0 0 0 0 0 0 BBo
#ZOMPROPERTIES_03 x3D box3d 0 0 0 0 0 0 AreaUV double 0.25138 Area3D double 0 IsRoot bool false TopoStable table {Sele
#ZOMPROPERTIES_03 cted bool false Box box3d 0 1 0 1 0 1 U int 0 V int 0 NU int 0 NV int 0 Tiling vector3d 1 1 1 TileRa
#ZOMPROPERTIES_03 tioMode string "1:1" } IsTile bool true PolyIDs ints { 0 12 13 14 11 10 4 5 6 3 2 1 16 15 7 8 9 17 1
#ZOMPROPERTIES_03 8 19 20 21 22 23 24 40 39 38 37 36 35 34 33 48 47 46 45 44 43 42 41 25 26 27 28 29 30 31 32 49 50 51
#ZOMPROPERTIES_03  52 53 54 55 56 57 58 59 60 61 62 63 64 65 66 67 68 69 70 71 72 88 87 86 85 84 83 82 81 96 95 94 93 
#ZOMPROPERTIES_03 92 91 90 89 73 74 75 76 77 78 79 80 97 112 111 98 99 100 101 102 113 108 107 106 109 110 103 104 105
#ZOMPROPERTIES_03  } } } BBoxUV box3d 0 0 0 0 0 0 BBox3D box3d 0 0 0 0 0 0 AreaUV double 0 Area3D double 0 IsRoot bool
#ZOMPROPERTIES_03  true TopoStable table {Selected bool false Box box3d 0 1 0 1 0 1 U int 0 V int 0 NU int 1 NV int 1 
#ZOMPROPERTIES_03 Tiling vector3d 1 1 1 TileRatioMode string "1:1" Pack table {Rotate table {Mode int 2 Min double 0 M
#ZOMPROPERTIES_03 ax double 180 Step double 0 } SpacingSize double 0.00390625 MarginSize double 0.00195312 Resolution 
#ZOMPROPERTIES_03 int 200 Scaling table {Mode int 0 } LayoutScalingMode int 2 MaxMutations int 1 } } IsTile bool false
#ZOMPROPERTIES_03  PolyIDs ints { } } Maps table {Density table {PrimType string "Polygon" Size int 1 DefaultValue dou
#ZOMPROPERTIES_03 ble 1 ScaleType string "Log" MergeMode string "Average" MinValue double 0.1 MaxValue double 4 Data d
#ZOMPROPERTIES_03 oubles { r 114 1 } } Pin table {PrimType string "Vertex" Size int 1 DefaultValue double 0 ScaleType 
#ZOMPROPERTIES_03 string "Normalized" MergeMode string "Max" MinValue double 0 MaxValue double 1 Data doubles { r 200 
#ZOMPROPERTIES_03 0 } } Protect table {PrimType string "Vertex" Size int 1 DefaultValue double 0 ScaleType string "Nor
#ZOMPROPERTIES_03 malized" MergeMode string "Average" MinValue double -1 MaxValue double 1 Data doubles { r 200 0 } } 
#ZOMPROPERTIES_03 } } }
#ZOMPROPERTIES_03 }

#begin 0 fatal error vertex (that RizomUV cannot handle)
#end 0 fatal error vertex (that RizomUV cannot handle)

#begin 0 error vertex
#end 0 error vertex
