#File written by RizomUV 2020.0.89.gadc9742. Compilation :May  5 2020,11:18:49
mtllib tape:mtl
#begin vertices
v -32.7996 103.955 -42.042
v -33.7393 102.1525 -41.9472
v -33.0741 101.8066 -41.929
v -32.2462 103.3945 -42.0125
v -32.4088 101.4607 -41.9108
v -31.3058 103.5764 -42.0221
v -31.7436 101.1149 -41.8926
v -31.0289 102.4858 -41.9647
v -31.0784 100.769 -41.8744
v -30.2552 102.3479 -41.9575
v -34.7811 100.1544 -41.8421
v -34.1158 99.8085 -41.8239
v -33.4506 99.4626 -41.8057
v -32.7853 99.1167 -41.7875
v -32.1201 98.7709 -41.7693
v -35.3895 98.9874 -41.7807
v -34.3485 99.3622 -41.8004
v -34.133 98.1536 -41.7369
v -33.3463 98.0407 -41.7309
v -33.0485 96.9901 -41.6757
v -32.7996 103.9628 -41.8939
v -32.2462 103.4023 -41.8644
v -33.0741 101.8144 -41.7809
v -33.7393 102.1603 -41.7991
v -31.3058 103.5842 -41.874
v -32.4088 101.4685 -41.7627
v -31.0289 102.4936 -41.8166
v -31.7436 101.1227 -41.7445
v -30.2552 102.3556 -41.8093
v -31.0784 100.7768 -41.7263
v -34.1158 99.8163 -41.6758
v -34.7811 100.1621 -41.694
v -33.4506 99.4704 -41.6576
v -32.7853 99.1245 -41.6394
v -32.1201 98.7787 -41.6212
v -34.3485 99.37 -41.6523
v -35.3895 98.9952 -41.6326
v -34.133 98.1614 -41.5887
v -33.3463 98.0485 -41.5828
v -33.0485 96.9978 -41.5275
v -45.982 50.2908 -41.4011
v -47.8874 49.5799 -41.4727
v -47.624 48.8811 -41.5431
v -45.9455 49.5075 -41.48
v -47.3606 48.1824 -41.6135
v -45.1242 49.017 -41.5294
v -47.0973 47.4837 -41.6839
v -45.6481 48.0245 -41.6294
v -46.8339 46.785 -41.7542
v -45.1649 47.4078 -41.6915
v -49.9996 48.7917 -41.5521
v -49.7362 48.093 -41.6225
v -49.4728 47.3943 -41.6929
v -49.2095 46.6956 -41.7633
v -48.9461 45.9969 -41.8336
v -51.2331 48.3314 -41.5985
v -50.208 47.9169 -41.6402
v -50.8566 46.8779 -41.7449
v -50.3469 46.2711 -41.806
v -50.8285 45.2944 -41.9044
v -45.982 50.276 -41.2536
v -45.9455 49.4926 -41.3325
v -47.624 48.8663 -41.3955
v -47.8874 49.565 -41.3252
v -45.1242 49.0021 -41.3819
v -47.3606 48.1676 -41.4659
v -45.6481 48.0096 -41.4818
v -47.0973 47.4689 -41.5363
v -45.1649 47.3929 -41.5439
v -46.8339 46.7702 -41.6067
v -49.7362 48.0781 -41.4749
v -49.9996 48.7768 -41.4046
v -49.4728 47.3794 -41.5453
v -49.2095 46.6807 -41.6157
v -48.9461 45.982 -41.6861
v -50.208 47.9021 -41.4927
v -51.2331 48.3165 -41.4509
v -50.8566 46.8631 -41.5973
v -50.3469 46.2563 -41.6584
v -50.8285 45.2796 -41.7568
#end vertices

#begin 170 textures vertices 
vt 0.253028 0.03113307 0
vt 0.2530307 0.1982826 0
vt 0.3146822 0.1982167 0
vt 0.3146855 0.05096455 0
vt 0.3763411 0.1981471 0
vt 0.3763393 0.001953125 0
vt 0.4379888 0.1980739 0
vt 0.4379872 0.07094727 0
vt 0.4996404 0.198008 0
vt 0.4996431 0.05159074 0
vt 0.2530244 0.3835754 0
vt 0.3146832 0.3835057 0
vt 0.3763348 0.3834399 0
vt 0.4379936 0.3833702 0
vt 0.4996413 0.383297 0
vt 0.2530257 0.491794 0
vt 0.3146817 0.4248932 0
vt 0.3763384 0.5048253 0
vt 0.4379918 0.4831517 0
vt 0.4996431 0.5484348 0
vt 0.2485721 0.03113307 0
vt 0.1869145 0.05096456 0
vt 0.1869178 0.1982168 0
vt 0.2485694 0.1982827 0
vt 0.1252608 0.001953125 0
vt 0.125259 0.1981471 0
vt 0.06361277 0.07094729 0
vt 0.0636112 0.198074 0
vt 0.001953125 0.05159804 0
vt 0.001959643 0.1980081 0
vt 0.1869168 0.3835058 0
vt 0.2485719 0.3835828 0
vt 0.1252653 0.3834399 0
vt 0.06360642 0.3833703 0
vt 0.001958656 0.3832971 0
vt 0.1869183 0.4248933 0
vt 0.2485744 0.4917941 0
vt 0.1252616 0.5048254 0
vt 0.06360825 0.4831518 0
vt 0.001953125 0.5484422 0
vt 0.5041039 0.03147307 0
vt 0.5040956 0.199008 0
vt 0.5656157 0.1988042 0
vt 0.565611 0.0512153 0
vt 0.6271281 0.1985975 0
vt 0.627122 0.001953125 0
vt 0.6886376 0.1983986 0
vt 0.6886357 0.07097264 0
vt 0.75015 0.198192 0
vt 0.7501495 0.05143997 0
vt 0.5040975 0.3847302 0
vt 0.5656099 0.3845235 0
vt 0.6271223 0.3843169 0
vt 0.6886318 0.3841179 0
vt 0.7501442 0.3839113 0
vt 0.5040986 0.4931898 0
vt 0.5656135 0.4260093 0
vt 0.6271246 0.5059925 0
vt 0.6886376 0.4841294 0
vt 0.75015 0.5494291 0
vt 0.3068513 0.4800918 0
vt 0.2453364 0.4998367 0
vt 0.2453389 0.6474227 0
vt 0.3068513 0.6476295 0
vt 0.1838256 0.4505743 0
vt 0.1838266 0.6472158 0
vt 0.1223117 0.5195936 0
vt 0.1223171 0.6470167 0
vt 0.06079795 0.5000608 0
vt 0.06080469 0.6468098 0
vt 0.2453364 0.8331448 0
vt 0.3068488 0.8333517 0
vt 0.183824 0.832938 0
vt 0.1223146 0.8327388 0
vt 0.06080217 0.832532 0
vt 0.2453405 0.8746277 0
vt 0.3068473 0.9418113 0
vt 0.1838291 0.9546107 0
vt 0.1223162 0.9327474 0
vt 0.06080353 0.9980469 0
vt 0.7877248 0.3321249 0
vt 0.8532453 0.1464774 0
vt 0.04777857 0.05660854 0
vt 0.8269513 0.00195398 0
vt 0.04777857 0.001953125 0
vt 0.904753 0.0962955 0
vt 0.7877296 0.4700742 0
vt 0.8269524 0.1594392 0
vt 0.7677187 0.1441431 0
vt 0.9709312 0.1571456 0
vt 0.7944027 0.3442351 0
vt 0.8924714 0.09310291 0
vt 0.7677186 0.3240912 0
vt 0.8269526 0.3340142 0
vt 0.8336266 0.1497759 0
vt 0.7877241 0.1575502 0
vt 0.8851467 0.00195468 0
vt 0.7677238 0.4844614 0
vt 0.8336284 0.2375019 0
vt 0.9442549 0.002190691 0
vt 0.8269513 0.4359756 0
vt 0.9120864 0.1584686 0
vt 0.9513242 0.09009209 0
vt 0.7877296 0.001961381 0
vt 0.9513162 0.00196149 0
vt 0.03333703 0.05660905 0
vt 0.8140117 0.001953125 0
vt 0.8140128 0.1594384 0
vt 0.9832213 0.07897282 0
vt 0.9048492 0.001953125 0
vt 0.8924714 0.1603033 0
vt 0.7747852 0.3321259 0
vt 0.8924714 0.09617962 0
vt 0.7747818 0.470066 0
vt 0.8140134 0.334022 0
vt 0.7747845 0.1575511 0
vt 0.9317013 0.001953125 0
vt 0.8140117 0.4359747 0
vt 0.9317013 0.09022459 0
vt 0.8728565 0.1021825 0
vt 0.9243265 0.09335255 0
vt 0.7747818 0.001953125 0
vt 0.9637478 0.001953125 0
vt 0.943889 0.1582659 0
vt 0.8069539 0.002424854 0
vt 0.9438899 0.09354024 0
vt 0.8069515 0.1647566 0
vt 0.9709312 0.07594242 0
vt 0.866498 0.05734316 0
vt 0.866498 0.001956422 0
vt 0.7551668 0.002425154 0
vt 0.7551702 0.1446149 0
vt 0.8069513 0.3447068 0
vt 0.7551701 0.3245629 0
vt 0.846881 0.001958204 0
vt 0.9247086 0.002467814 0
vt 0.8069539 0.4497957 0
vt 0.8468851 0.09528014 0
vt 0.8468832 0.1497819 0
vt 0.7551668 0.4849334 0
vt 0.8468851 0.2375079 0
vt 0.9317013 0.1582704 0
vt 0.7944052 0.001953125 0
vt 0.7944028 0.1642848 0
vt 0.9840303 0.001953125 0
vt 0.8532415 0.05733986 0
vt 0.8532415 0.001953125 0
vt 0.7677238 0.001953125 0
vt 0.9120864 0.001953125 0
vt 0.7943967 0.4493237 0
vt 0.9120864 0.08976164 0
vt 0.8336284 0.09527416 0
vt 0.9709312 0.07909829 0
vt 0.03333703 0.001953637 0
vt 0.9832213 0.1570201 0
vt 0.8924714 0.001953564 0
vt 0.9120864 0.09344591 0
vt 0.9048492 0.09310247 0
vt 0.9047448 0.1604191 0
vt 0.9637478 0.09009253 0
vt 0.9243347 0.1583751 0
vt 0.8851467 0.1021836 0
vt 0.8728648 0.001953125 0
vt 0.9442549 0.09046215 0
vt 0.9317013 0.0935366 0
vt 0.9709312 0.002741016 0
vt 0.9840303 0.07515453 0
vt 0.8664929 0.1464816 0
vt 0.8336333 0.001953125 0
vt 0.9247 0.09027598 0
#end 170 textures vertices 

#begin 54 normals 
vn -0.1229 0.7868 -0.6048
vn -0.6272 0.2889 -0.7233
vn -0 -0.0525 -0.9986
vn 0.165 0.488 -0.8571
vn 0.4364 0.6561 -0.6157
vn 0.3572 0.3386 -0.8705
vn 0.6272 -0.3632 -0.689
vn 0.7416 0.3345 -0.5815
vn -0.6309 -0.5792 -0.5162
vn -0.1918 -0.3798 -0.905
vn -0.5582 -0.6076 -0.5649
vn -0.3444 -0.4379 -0.8305
vn -0.0854 -0.8608 -0.5017
vn -0.1229 0.8459 0.519
vn 0.165 0.5752 0.8012
vn 0 0.0525 0.9986
vn -0.6272 0.3632 0.689
vn 0.4364 0.7171 0.5435
vn 0.3572 0.4279 0.8302
vn 0.7416 0.3936 0.5432
vn 0.6272 -0.2889 0.7233
vn -0.1918 -0.2826 0.9399
vn -0.6306 -0.5222 0.5741
vn -0.5582 -0.5452 0.6255
vn -0.3444 -0.3482 0.8719
vn -0.0854 -0.8035 0.5892
vn 0.455 0.7431 -0.4907
vn -0.2483 0.7296 -0.6372
vn 0 0.1002 -0.995
vn 0.4785 0.3675 -0.7975
vn 0.7841 0.2768 -0.5555
vn 0.5223 0.1319 -0.8425
vn 0.2483 -0.5879 -0.7699
vn 0.7953 -0.1669 -0.5828
vn -0 0.1002 -0.995
vn -0.8377 0.0663 -0.542
vn -0.3643 -0.0254 -0.9309
vn -0.801 0.0038 -0.5987
vn -0.5193 0.0231 -0.8543
vn -0.6204 -0.5052 -0.5998
vn 0.455 0.6303 0.629
vn 0.4785 0.2011 0.8547
vn -0 -0.1002 0.995
vn -0.2483 0.5879 0.7699
vn 0.7841 0.1605 0.5995
vn 0.5222 -0.0389 0.8519
vn 0.7953 -0.2798 0.5378
vn 0.2483 -0.7296 0.6372
vn 0 -0.1002 0.995
vn -0.3643 -0.2104 0.9072
vn -0.8378 -0.0436 0.5442
vn -0.801 -0.1158 0.5873
vn -0.5192 -0.1477 0.8418
vn -0.6204 -0.6147 0.487
#end 54 normals 

#begin 76 faces
o Box074
usemtl wire_143225087
g Box074
s 2
f 4/4/4 3/3/3 2/2/2 1/1/1 
f 6/6/5 5/5/3 3/3/3 4/4/4 
f 8/8/6 7/7/3 5/5/3 6/6/5 
f 10/10/8 9/9/7 7/7/3 8/8/6 
f 3/3/3 12/12/3 11/11/2 2/2/2 
f 5/5/3 13/13/3 12/12/3 3/3/3 
f 7/7/3 14/14/3 13/13/3 5/5/3 
f 9/9/7 15/15/7 14/14/3 7/7/3 
f 12/12/3 17/17/10 16/16/9 11/11/2 
f 13/13/3 18/18/11 17/17/10 12/12/3 
f 14/14/3 19/19/12 18/18/11 13/13/3 
f 15/15/7 20/20/13 19/19/12 14/14/3 
s 4
f 24/24/17 23/23/16 22/22/15 21/21/14 
f 23/23/16 26/26/16 25/25/18 22/22/15 
f 26/26/16 28/28/16 27/27/19 25/25/18 
f 28/28/16 30/30/21 29/29/20 27/27/19 
f 32/32/17 31/31/16 23/23/16 24/24/17 
f 31/31/16 33/33/16 26/26/16 23/23/16 
f 33/33/16 34/34/16 28/28/16 26/26/16 
f 34/34/16 35/35/21 30/30/21 28/28/16 
f 37/37/23 36/36/22 31/31/16 32/32/17 
f 36/36/22 38/38/24 33/33/16 31/31/16 
f 38/38/24 39/39/25 34/34/16 33/33/16 
f 39/39/25 40/40/26 35/35/21 34/34/16 
s 8
f 21/106/14 22/154/15 4/85/4 1/83/1 
f 22/109/15 25/155/18 6/90/5 4/153/4 
f 25/110/18 27/158/19 8/92/6 6/156/5 
f 27/111/19 29/113/20 10/86/8 8/159/6 
s 16
f 29/114/20 30/112/21 9/81/7 10/87/8 
f 30/112/21 35/116/21 15/96/7 9/81/7 
f 35/116/21 40/122/26 20/104/13 15/96/7 
s 32
f 40/123/26 39/160/25 19/103/12 20/105/13 
f 39/121/25 38/161/24 18/102/11 19/157/12 
f 38/120/24 36/163/22 17/97/10 18/162/11 
f 36/119/22 37/117/23 16/100/9 17/164/10 
s 64
f 37/118/23 32/115/17 11/94/2 16/101/9 
f 32/115/17 24/108/17 2/88/2 11/94/2 
f 24/108/17 21/107/14 1/84/1 2/88/2 
o Box075
usemtl wire_143225087
g Box075
s 2
f 44/44/30 43/43/29 42/42/28 41/41/27 
f 46/46/31 45/45/29 43/43/29 44/44/30 
f 48/48/32 47/47/29 45/45/29 46/46/31 
f 50/50/34 49/49/33 47/47/29 48/48/32 
f 43/43/29 52/52/35 51/51/28 42/42/28 
f 45/45/29 53/53/29 52/52/35 43/43/29 
f 47/47/29 54/54/29 53/53/29 45/45/29 
f 49/49/33 55/55/33 54/54/29 47/47/29 
f 52/52/35 57/57/37 56/56/36 51/51/28 
f 53/53/29 58/58/38 57/57/37 52/52/35 
f 54/54/29 59/59/39 58/58/38 53/53/29 
f 55/55/33 60/60/40 59/59/39 54/54/29 
s 4
f 64/64/44 63/63/43 62/62/42 61/61/41 
f 63/63/43 66/66/43 65/65/45 62/62/42 
f 66/66/43 68/68/43 67/67/46 65/65/45 
f 68/68/43 70/70/48 69/69/47 67/67/46 
f 72/72/44 71/71/49 63/63/43 64/64/44 
f 71/71/49 73/73/43 66/66/43 63/63/43 
f 73/73/43 74/74/43 68/68/43 66/66/43 
f 74/74/43 75/75/48 70/70/48 68/68/43 
f 77/77/51 76/76/50 71/71/49 72/72/44 
f 76/76/50 78/78/52 73/73/43 71/71/49 
f 78/78/52 79/79/53 74/74/43 73/73/43 
f 79/79/53 80/80/54 75/75/48 74/74/43 
s 8
f 61/142/41 62/165/42 44/126/30 41/124/27 
f 62/145/42 65/167/45 46/128/31 44/166/30 
f 65/82/45 67/146/46 48/129/32 46/168/31 
f 67/146/46 69/147/47 50/130/34 48/129/32 
s 16
f 69/148/47 70/89/48 49/132/33 50/131/34 
f 70/89/48 75/93/48 55/134/33 49/132/33 
f 75/93/48 80/98/54 60/140/40 55/134/33 
s 32
f 80/99/54 79/95/53 59/139/39 60/141/40 
f 79/95/53 78/152/52 58/138/38 59/139/39 
f 78/152/52 76/169/50 57/135/37 58/138/38 
f 76/151/50 77/149/51 56/136/36 57/170/37 
s 64
f 77/150/51 72/91/44 51/133/28 56/137/36 
f 72/91/44 64/144/44 42/127/28 51/133/28 
f 64/144/44 61/143/41 41/125/27 42/127/28 
#end 76 faces

#ZOMPROPERTIES_03 {
#ZOMPROPERTIES_03 table {Mesh table {SymPlane table {Point vector3d 0 0 0 Normal vector3d 1 0 0 Threshold double 0.01 
#ZOMPROPERTIES_03 Enabled bool false EdgeID int -1 SymEdgeID int -1 UPos double 0.5 LocalMode bool false } RootGroup C
#ZOMPROPERTIES_03 SubMeshGroup {Children table {Tile_0_0 CSubMeshGroup {Children table {} BBoxUV box3d 0 0 0 0 0 0 BBo
#ZOMPROPERTIES_03 x3D box3d 0 0 0 0 0 0 AreaUV double 0.475089 Area3D double 0 IsRoot bool false TopoStable table {Sel
#ZOMPROPERTIES_03 ected bool false Box box3d 0 1 0 1 0 1 U int 0 V int 0 NU int 0 NV int 0 Tiling vector3d 1 1 1 TileR
#ZOMPROPERTIES_03 atioMode string "1:1" } IsTile bool true PolyIDs ints { 0 4 8 9 10 11 7 3 2 1 6 5 12 13 14 15 19 23 
#ZOMPROPERTIES_03 22 21 20 16 17 18 24 25 26 27 28 29 30 31 32 33 34 35 36 37 38 42 46 47 48 49 45 41 40 39 44 43 50 5
#ZOMPROPERTIES_03 1 52 53 57 61 60 59 58 54 55 56 62 63 64 65 66 67 68 69 70 71 72 73 74 75 } } } BBoxUV box3d 0 0 0 0
#ZOMPROPERTIES_03  0 0 BBox3D box3d 0 0 0 0 0 0 AreaUV double 0 Area3D double 0 IsRoot bool true TopoStable table {Sel
#ZOMPROPERTIES_03 ected bool false Box box3d 0 1 0 1 0 1 U int 0 V int 0 NU int 1 NV int 1 Tiling vector3d 1 1 1 TileR
#ZOMPROPERTIES_03 atioMode string "1:1" Pack table {Rotate table {Mode int 2 Min double 0 Max double 180 Step double 0
#ZOMPROPERTIES_03  } SpacingSize double 0.00390625 MarginSize double 0.00195312 Resolution int 200 Scaling table {Mode
#ZOMPROPERTIES_03  int 0 } LayoutScalingMode int 2 MaxMutations int 1 } } IsTile bool false PolyIDs ints { } } Maps ta
#ZOMPROPERTIES_03 ble {Density table {PrimType string "Polygon" Size int 1 DefaultValue double 1 ScaleType string "Log
#ZOMPROPERTIES_03 " MergeMode string "Average" MinValue double 0.1 MaxValue double 4 Data doubles { r 76 1 } } Pin tab
#ZOMPROPERTIES_03 le {PrimType string "Vertex" Size int 1 DefaultValue double 0 ScaleType string "Normalized" MergeMod
#ZOMPROPERTIES_03 e string "Max" MinValue double 0 MaxValue double 1 Data doubles { r 170 0 } } Protect table {PrimTyp
#ZOMPROPERTIES_03 e string "Vertex" Size int 1 DefaultValue double 0 ScaleType string "Normalized" MergeMode string "A
#ZOMPROPERTIES_03 verage" MinValue double -1 MaxValue double 1 Data doubles { r 170 0 } } } } }
#ZOMPROPERTIES_03 }

#begin 0 fatal error vertex (that RizomUV cannot handle)
#end 0 fatal error vertex (that RizomUV cannot handle)

#begin 0 error vertex
#end 0 error vertex
