#File written by RizomUV 2020.0.89.gadc9742. Compilation :May  5 2020,11:18:49
mtllib wall-guanzi-liquid1:mtl
#begin vertices
v -41.6785 77.3045 -24.0715
v -37.1643 77.3045 -24.0715
v -37.1999 77.3045 -23.5057
v -37.3061 77.3045 -22.9488
v -37.4813 77.3045 -22.4097
v -37.7226 77.3045 -21.8967
v -38.0264 77.3045 -21.4181
v -38.3878 77.3045 -20.9812
v -38.801 77.3045 -20.5932
v -39.2597 77.3045 -20.2599
v -39.7565 77.3045 -19.9868
v -40.2835 77.3045 -19.7781
v -40.8326 77.3045 -19.6372
v -41.3951 77.3045 -19.5661
v -41.962 77.3045 -19.5661
v -42.5244 77.3045 -19.6372
v -43.0735 77.3045 -19.7781
v -43.6006 77.3045 -19.9868
v -44.0974 77.3045 -20.2599
v -44.556 77.3045 -20.5932
v -44.9693 77.3045 -20.9812
v -45.3307 77.3045 -21.418
v -45.6344 77.3045 -21.8967
v -45.8758 77.3045 -22.4097
v -46.051 77.3045 -22.9488
v -46.1572 77.3045 -23.5057
v -46.1928 77.3045 -24.0715
v -46.1928 83.62 -24.0715
v -41.6785 83.62 -24.0715
v -46.1572 83.62 -23.5057
v -46.051 83.62 -22.9488
v -45.8758 83.62 -22.4097
v -45.6344 83.62 -21.8967
v -45.3307 83.62 -21.418
v -44.9693 83.62 -20.9812
v -44.556 83.62 -20.5932
v -44.0974 83.62 -20.2599
v -43.6006 83.62 -19.9868
v -43.0735 83.62 -19.7781
v -42.5244 83.62 -19.6372
v -41.962 83.62 -19.5661
v -41.3951 83.62 -19.5661
v -40.8326 83.62 -19.6372
v -40.2835 83.62 -19.7781
v -39.7565 83.62 -19.9868
v -39.2597 83.62 -20.2599
v -38.801 83.62 -20.5932
v -38.3878 83.62 -20.9812
v -38.0264 83.62 -21.4181
v -37.7226 83.62 -21.8967
v -37.4813 83.62 -22.4097
v -37.3061 83.62 -22.9488
v -37.1999 83.62 -23.5057
v -37.1643 83.62 -24.0715
#end vertices

#begin 110 textures vertices 
vt 0.6222643 0.1957646 0
vt 0.6222643 0.3895718 0
vt 0.5979729 0.3880434 0
vt 0.5740636 0.3834839 0
vt 0.5509186 0.3759621 0
vt 0.528894 0.3656024 0
vt 0.5083464 0.3525594 0
vt 0.4895891 0.3370435 0
vt 0.4729312 0.3193037 0
vt 0.4586217 0.2996104 0
vt 0.4468967 0.2782814 0
vt 0.4379366 0.2556558 0
vt 0.4318874 0.2320814 0
vt 0.4288349 0.2079318 0
vt 0.4288349 0.1835932 0
vt 0.4318874 0.1594478 0
vt 0.4379366 0.1358734 0
vt 0.4468967 0.1132435 0
vt 0.4586217 0.09191448 0
vt 0.4729312 0.07222551 0
vt 0.4895891 0.05448139 0
vt 0.5083421 0.03896548 0
vt 0.528894 0.02592679 0
vt 0.5509186 0.01556282 0
vt 0.5740636 0.008040994 0
vt 0.5979729 0.003481532 0
vt 0.6222643 0.001953125 0
vt 0.001953125 0.9980469 0
vt 0.001953125 0.8042354 0
vt 0.001953125 0.02629253 0
vt 0.001953125 0.05063266 0
vt 0.001953125 0.07496929 0
vt 0.001953125 0.09931044 0
vt 0.001953125 0.1236495 0
vt 0.001953125 0.1479892 0
vt 0.001953125 0.1723272 0
vt 0.001953125 0.1966668 0
vt 0.001953125 0.2210061 0
vt 0.001953125 0.2453453 0
vt 0.001953125 0.2696834 0
vt 0.001953125 0.294021 0
vt 0.001953125 0.3183596 0
vt 0.001953125 0.3427014 0
vt 0.001953125 0.3670396 0
vt 0.001953125 0.3913747 0
vt 0.001953125 0.415714 0
vt 0.001953125 0.4400571 0
vt 0.001953125 0.464392 0
vt 0.001953125 0.488735 0
vt 0.001953125 0.5130727 0
vt 0.001953125 0.537412 0
vt 0.001953125 0.5617487 0
vt 0.001953125 0.5860888 0
vt 0.001953125 0.6104282 0
vt 0.2730951 0.4400571 0
vt 0.2730951 0.8042354 0
vt 0.2730951 0.6104282 0
vt 0.2730951 0.5860888 0
vt 0.2730951 0.5617487 0
vt 0.2730951 0.537412 0
vt 0.2730951 0.5130727 0
vt 0.2730951 0.488735 0
vt 0.2730951 0.464392 0
vt 0.2730951 0.415714 0
vt 0.2730951 0.3913747 0
vt 0.2730951 0.3670396 0
vt 0.2730951 0.3427014 0
vt 0.2730951 0.3183596 0
vt 0.2730951 0.294021 0
vt 0.2730951 0.2696834 0
vt 0.2730951 0.2453453 0
vt 0.2730951 0.2210061 0
vt 0.2730951 0.1966668 0
vt 0.2730951 0.1723272 0
vt 0.2730951 0.1479892 0
vt 0.2730951 0.1236495 0
vt 0.2730951 0.09931044 0
vt 0.2730951 0.07496929 0
vt 0.2730951 0.05063266 0
vt 0.2730951 0.02629253 0
vt 0.2730951 0.9980469 0
vt 0.2730951 0.001953125 0
vt 0.001953125 0.001953125 0
vt 0.7586103 0.001953125 0
vt 0.7586103 0.1957646 0
vt 0.7829017 0.003481532 0
vt 0.806811 0.008040994 0
vt 0.829956 0.01556282 0
vt 0.8519806 0.02592679 0
vt 0.8725325 0.03896548 0
vt 0.8912855 0.05448139 0
vt 0.9079434 0.07222551 0
vt 0.9222529 0.09191448 0
vt 0.9339779 0.1132435 0
vt 0.942938 0.1358734 0
vt 0.9489872 0.1594478 0
vt 0.9520397 0.1835932 0
vt 0.9520397 0.2079318 0
vt 0.9489872 0.2320814 0
vt 0.942938 0.2556558 0
vt 0.9339779 0.2782814 0
vt 0.9222529 0.2996104 0
vt 0.9079434 0.3193037 0
vt 0.8912855 0.3370435 0
vt 0.8725282 0.3525594 0
vt 0.8519806 0.3656024 0
vt 0.829956 0.3759621 0
vt 0.806811 0.3834839 0
vt 0.7829017 0.3880434 0
vt 0.7586103 0.3895718 0
#end 110 textures vertices 

#begin 54 normals 
vn -0 0.7071 -0.7071
vn 0.5968 -0.5742 -0.5605
vn 0.715 -0.6933 0.0903
vn 0.698 -0.6933 0.1792
vn 0.6701 -0.6933 0.2653
vn 0.6316 -0.6932 0.3472
vn 0.5831 -0.6932 0.4236
vn 0.5254 -0.6932 0.4934
vn 0.4594 -0.6932 0.5553
vn 0.3862 -0.6933 0.6085
vn 0.3068 -0.6933 0.6521
vn 0.2227 -0.6932 0.6854
vn 0.135 -0.6933 0.7079
vn 0.0452 -0.6933 0.7192
vn -0.0453 -0.6932 0.7193
vn -0.135 -0.6933 0.7079
vn -0.2227 -0.6933 0.6854
vn -0.3068 -0.6933 0.6521
vn -0.3862 -0.6932 0.6085
vn -0.4594 -0.6932 0.5553
vn -0.5254 -0.6932 0.4934
vn -0.5831 -0.6932 0.4236
vn -0.6316 -0.6932 0.3472
vn -0.6701 -0.6932 0.2653
vn -0.698 -0.6933 0.1792
vn -0.715 -0.6933 0.0903
vn -0.5969 -0.5741 -0.5605
vn -0.5969 0.5741 -0.5605
vn -0 -0.7071 -0.7071
vn -0.715 0.6933 0.0903
vn -0.698 0.6933 0.1792
vn -0.6701 0.6932 0.2653
vn -0.6316 0.6932 0.3472
vn -0.5831 0.6932 0.4236
vn -0.5254 0.6932 0.4934
vn -0.4594 0.6932 0.5553
vn -0.3862 0.6932 0.6085
vn -0.3068 0.6933 0.6521
vn -0.2227 0.6933 0.6854
vn -0.135 0.6933 0.7079
vn -0.0453 0.6932 0.7193
vn 0.0452 0.6933 0.7192
vn 0.135 0.6933 0.7079
vn 0.2227 0.6932 0.6854
vn 0.3068 0.6933 0.6521
vn 0.3862 0.6933 0.6085
vn 0.4594 0.6932 0.5553
vn 0.5254 0.6932 0.4934
vn 0.5831 0.6932 0.4236
vn 0.6316 0.6932 0.3472
vn 0.6701 0.6933 0.2653
vn 0.698 0.6933 0.1792
vn 0.715 0.6933 0.0903
vn 0.5968 0.5742 -0.5605
#end 54 normals 

#begin 29 faces
o Cylinder077
usemtl wire_115115115
g Cylinder077
s 1
f 1/1/1 2/2/2 3/3/3 4/4/4 5/5/5 6/6/6 7/7/7 8/8/8 9/9/9 10/10/10 11/11/11 12/12/12 13/13/13 14/14/14 15/15/15 16/16/16 17/17/17 18/18/18 19/19/19 20/20/20 21/21/21 22/22/22 23/23/23 24/24/24 25/25/25 26/26/26 27/27/27 
s 2
f 1/56/1 27/81/27 28/28/28 29/29/29 
s 8
f 27/82/27 26/80/26 30/30/30 28/83/28 
f 26/80/26 25/79/25 31/31/31 30/30/30 
f 25/79/25 24/78/24 32/32/32 31/31/31 
f 24/78/24 23/77/23 33/33/33 32/32/32 
f 23/77/23 22/76/22 34/34/34 33/33/33 
f 22/76/22 21/75/21 35/35/35 34/34/34 
f 21/75/21 20/74/20 36/36/36 35/35/35 
f 20/74/20 19/73/19 37/37/37 36/36/36 
f 19/73/19 18/72/18 38/38/38 37/37/37 
f 18/72/18 17/71/17 39/39/39 38/38/38 
f 17/71/17 16/70/16 40/40/40 39/39/39 
f 16/70/16 15/69/15 41/41/41 40/40/40 
f 15/69/15 14/68/14 42/42/42 41/41/41 
f 14/68/14 13/67/13 43/43/43 42/42/42 
f 13/67/13 12/66/12 44/44/44 43/43/43 
f 12/66/12 11/65/11 45/45/45 44/44/44 
f 11/65/11 10/64/10 46/46/46 45/45/45 
f 10/64/10 9/55/9 47/47/47 46/46/46 
f 9/55/9 8/63/8 48/48/48 47/47/47 
f 8/63/8 7/62/7 49/49/49 48/48/48 
f 7/62/7 6/61/6 50/50/50 49/49/49 
f 6/61/6 5/60/5 51/51/51 50/50/50 
f 5/60/5 4/59/4 52/52/52 51/51/51 
f 4/59/4 3/58/3 53/53/53 52/52/52 
f 3/58/3 2/57/2 54/54/54 53/53/53 
s 4
f 2/57/2 1/56/1 29/29/29 54/54/54 
s 1
f 29/85/29 28/84/28 30/86/30 31/87/31 32/88/32 33/89/33 34/90/34 35/91/35 36/92/36 37/93/37 38/94/38 39/95/39 40/96/40 41/97/41 42/98/42 43/99/43 44/100/44 45/101/45 46/102/46 47/103/47 48/104/48 49/105/49 50/106/50 51/107/51 52/108/52 53/109/53 54/110/54 
#end 29 faces

#ZOMPROPERTIES_03 {
#ZOMPROPERTIES_03 table {Mesh table {SymPlane table {Point vector3d 0 0 0 Normal vector3d 1 0 0 Threshold double 0.01 
#ZOMPROPERTIES_03 Enabled bool false EdgeID int -1 SymEdgeID int -1 UPos double 0.5 LocalMode bool false } RootGroup C
#ZOMPROPERTIES_03 SubMeshGroup {Children table {Tile_0_0 CSubMeshGroup {Children table {} BBoxUV box3d 0 0 0 0 0 0 BBo
#ZOMPROPERTIES_03 x3D box3d 0 0 0 0 0 0 AreaUV double 0.387779 Area3D double 0 IsRoot bool false TopoStable table {Sel
#ZOMPROPERTIES_03 ected bool false Box box3d 0 1 0 1 0 1 U int 0 V int 0 NU int 0 NV int 0 Tiling vector3d 1 1 1 TileR
#ZOMPROPERTIES_03 atioMode string "1:1" } IsTile bool true PolyIDs ints { 0 1 27 26 25 24 23 22 21 20 19 18 17 16 15 1
#ZOMPROPERTIES_03 4 13 12 11 10 9 8 7 6 5 4 3 2 28 } } } BBoxUV box3d 0 0 0 0 0 0 BBox3D box3d 0 0 0 0 0 0 AreaUV doub
#ZOMPROPERTIES_03 le 0 Area3D double 0 IsRoot bool true TopoStable table {Selected bool false Box box3d 0 1 0 1 0 1 U 
#ZOMPROPERTIES_03 int 0 V int 0 NU int 1 NV int 1 Tiling vector3d 1 1 1 TileRatioMode string "1:1" Pack table {Rotate 
#ZOMPROPERTIES_03 table {Mode int 2 Min double 0 Max double 180 Step double 0 } SpacingSize double 0.00390625 MarginSi
#ZOMPROPERTIES_03 ze double 0.00195312 Resolution int 200 Scaling table {Mode int 0 } LayoutScalingMode int 2 MaxMutat
#ZOMPROPERTIES_03 ions int 1 } } IsTile bool false PolyIDs ints { } } Maps table {Density table {PrimType string "Poly
#ZOMPROPERTIES_03 gon" Size int 1 DefaultValue double 1 ScaleType string "Log" MergeMode string "Average" MinValue dou
#ZOMPROPERTIES_03 ble 0.1 MaxValue double 4 Data doubles { r 29 1 } } Pin table {PrimType string "Vertex" Size int 1 D
#ZOMPROPERTIES_03 efaultValue double 0 ScaleType string "Normalized" MergeMode string "Max" MinValue double 0 MaxValue
#ZOMPROPERTIES_03  double 1 Data doubles { r 110 0 } } Protect table {PrimType string "Vertex" Size int 1 DefaultValue
#ZOMPROPERTIES_03  double 0 ScaleType string "Normalized" MergeMode string "Average" MinValue double -1 MaxValue doubl
#ZOMPROPERTIES_03 e 1 Data doubles { r 110 0 } } } } }
#ZOMPROPERTIES_03 }

#begin 0 fatal error vertex (that RizomUV cannot handle)
#end 0 fatal error vertex (that RizomUV cannot handle)

#begin 0 error vertex
#end 0 error vertex
